<svg id="Layer_1" data-name="Layer 1" xmlns="http://www.w3.org/2000/svg" xmlns:xlink="http://www.w3.org/1999/xlink" viewBox="0 0 167.33 104.01"><defs><style>.cls-1{fill:#fff;}.cls-2{fill:url(#New_Gradient_Swatch_3);}.cls-3{fill:url(#New_Gradient_Swatch_3-2);}.cls-4{fill:url(#New_Gradient_Swatch_3-3);}.cls-5{fill:url(#New_Gradient_Swatch_3-4);}.cls-6{fill:url(#New_Gradient_Swatch_3-5);}.cls-7{fill:url(#New_Gradient_Swatch_2);}.cls-8{fill:url(#New_Gradient_Swatch_2-2);}.cls-9{fill:url(#New_Gradient_Swatch_2-3);}.cls-10{fill:url(#New_Gradient_Swatch_2-4);}.cls-11{fill:url(#New_Gradient_Swatch_2-5);}</style><linearGradient id="New_Gradient_Swatch_3" x1="43.09" y1="3.5" x2="43.09" y2="49.01" gradientUnits="userSpaceOnUse"><stop offset="0" stop-color="#c8c6c7"/><stop offset="1" stop-color="#d3519d"/></linearGradient><linearGradient id="New_Gradient_Swatch_3-2" x1="25.89" y1="3.5" x2="25.89" y2="49.01" xlink:href="#New_Gradient_Swatch_3"/><linearGradient id="New_Gradient_Swatch_3-3" x1="42.71" y1="3.5" x2="42.71" y2="49.01" xlink:href="#New_Gradient_Swatch_3"/><linearGradient id="New_Gradient_Swatch_3-4" x1="61.13" y1="3.5" x2="61.13" y2="49.01" xlink:href="#New_Gradient_Swatch_3"/><linearGradient id="New_Gradient_Swatch_3-5" x1="83.67" y1="3.5" x2="83.67" y2="49.01" xlink:href="#New_Gradient_Swatch_3"/><linearGradient id="New_Gradient_Swatch_2" x1="43.09" y1="55.51" x2="43.09" y2="101.02" gradientUnits="userSpaceOnUse"><stop offset="0" stop-color="#b1c6c7"/><stop offset="1" stop-color="#2c80a9"/></linearGradient><linearGradient id="New_Gradient_Swatch_2-2" x1="25.89" y1="55.51" x2="25.89" y2="101.02" xlink:href="#New_Gradient_Swatch_2"/><linearGradient id="New_Gradient_Swatch_2-3" x1="42.71" y1="55.51" x2="42.71" y2="101.02" xlink:href="#New_Gradient_Swatch_2"/><linearGradient id="New_Gradient_Swatch_2-4" x1="61.13" y1="55.51" x2="61.13" y2="101.02" xlink:href="#New_Gradient_Swatch_2"/><linearGradient id="New_Gradient_Swatch_2-5" x1="83.67" y1="55.51" x2="83.67" y2="101.02" xlink:href="#New_Gradient_Swatch_2"/></defs><title>about_me_button</title><rect class="cls-1" x="10.58" y="4.46" width="145.3" height="43.5" rx="12" ry="12"/><rect class="cls-1" x="10.58" y="56.46" width="145.3" height="43.5" rx="12" ry="12"/><path class="cls-2" d="M45.52,27.2a8.89,8.89,0,0,0-2.64-.3H38.71v6.2H43.2A10.32,10.32,0,0,0,44.82,33a3.89,3.89,0,0,0,1.38-.49,2.61,2.61,0,0,0,.91-1A3.14,3.14,0,0,0,47.47,30,3,3,0,0,0,47,28.24,2.73,2.73,0,0,0,45.52,27.2Z"/><path class="cls-3" d="M25.79,19.08a23,23,0,0,1-1,3.45l-2,5.29H29l-1.88-5Q26.21,20.55,25.79,19.08Z"/><path class="cls-4" d="M44.88,24.56a2.53,2.53,0,0,0,1.37-.9,2.59,2.59,0,0,0,.46-1.58,2.9,2.9,0,0,0-.43-1.58,2.18,2.18,0,0,0-1.23-.94,10.29,10.29,0,0,0-2.74-.25H38.71v5.45h3.9A8.69,8.69,0,0,0,44.88,24.56Z"/><path class="cls-5" d="M64.37,19.83a5.91,5.91,0,0,0-3.22-.9,6.1,6.1,0,0,0-4.36,1.74Q55,22.4,55,26.48a7.23,7.23,0,0,0,1.75,5.14,6.12,6.12,0,0,0,8.83,0,7.66,7.66,0,0,0,1.74-5.38,9.24,9.24,0,0,0-.74-3.85A5.72,5.72,0,0,0,64.37,19.83Z"/><path class="cls-6" d="M148.17,2.6h-129A10.83,10.83,0,0,0,8.37,13.4V38.6a10.83,10.83,0,0,0,10.8,10.8h129A10.83,10.83,0,0,0,159,38.6V13.4A10.83,10.83,0,0,0,148.17,2.6ZM31.79,35.23l-2.1-5.46H22.15l-2,5.46H17.63l6.93-18h2.57l7.38,18Zm17.61-2.87A4.57,4.57,0,0,1,48.08,34a5.52,5.52,0,0,1-2,.89,12,12,0,0,1-2.91.3H36.32v-18h6.77a8.38,8.38,0,0,1,3.32.55,4.27,4.27,0,0,1,2,1.69,4.45,4.45,0,0,1,.71,2.38A4.09,4.09,0,0,1,48.44,24a4.48,4.48,0,0,1-1.89,1.65,4.71,4.71,0,0,1,2.52,1.64A4.39,4.39,0,0,1,49.94,30,5.27,5.27,0,0,1,49.41,32.35Zm19.24-1.21a7.56,7.56,0,0,1-3.14,3.28,9,9,0,0,1-4.38,1.11,8.53,8.53,0,0,1-4.55-1.23,7.91,7.91,0,0,1-3-3.36,10.18,10.18,0,0,1-1-4.5,9.8,9.8,0,0,1,2.41-7,8.2,8.2,0,0,1,6.23-2.54,8.64,8.64,0,0,1,4.5,1.19,7.8,7.8,0,0,1,3.06,3.33,10.81,10.81,0,0,1,1.05,4.84A10.63,10.63,0,0,1,68.64,31.14Zm18.41-3.53a12.34,12.34,0,0,1-.62,4.32,5.27,5.27,0,0,1-2.22,2.6,7.86,7.86,0,0,1-4.21,1,8.66,8.66,0,0,1-4.15-.87,5,5,0,0,1-2.3-2.53,12,12,0,0,1-.69-4.52V17.19h2.39V27.6a10.14,10.14,0,0,0,.44,3.46,3.31,3.31,0,0,0,1.5,1.72,5.2,5.2,0,0,0,2.6.6,5,5,0,0,0,3.75-1.19Q84.67,31,84.67,27.6V17.19h2.39ZM104,19.32H98V35.23H95.62V19.32H89.67V17.19H104Zm26.14,15.91h-2.3V20.13l-5.24,15.1h-2.15l-5.22-15.36V35.23h-2.3v-18h3.59L120.76,30q.59,1.78.86,2.67.31-1,1-2.89l4.32-12.55h3.21Zm17.36,0H134v-18h13v2.13H136.39v5.52h10V27h-10V33.1h11.07Z"/><path class="cls-7" d="M45.52,79.21a8.89,8.89,0,0,0-2.64-.3H38.71v6.2H43.2A10.32,10.32,0,0,0,44.82,85a3.89,3.89,0,0,0,1.38-.49,2.61,2.61,0,0,0,.91-1A3.14,3.14,0,0,0,47.47,82,3,3,0,0,0,47,80.25,2.73,2.73,0,0,0,45.52,79.21Z"/><path class="cls-8" d="M25.79,71.09a23,23,0,0,1-1,3.45l-2,5.29H29l-1.88-5Q26.21,72.56,25.79,71.09Z"/><path class="cls-9" d="M44.88,76.57a2.53,2.53,0,0,0,1.37-.9,2.59,2.59,0,0,0,.46-1.58,2.9,2.9,0,0,0-.43-1.58,2.18,2.18,0,0,0-1.23-.94,10.29,10.29,0,0,0-2.74-.25H38.71v5.45h3.9A8.69,8.69,0,0,0,44.88,76.57Z"/><path class="cls-10" d="M64.37,71.84a5.91,5.91,0,0,0-3.22-.9,6.1,6.1,0,0,0-4.36,1.74Q55,74.41,55,78.49a7.23,7.23,0,0,0,1.75,5.14,6.12,6.12,0,0,0,8.83,0,7.66,7.66,0,0,0,1.74-5.38,9.24,9.24,0,0,0-.74-3.85A5.72,5.72,0,0,0,64.37,71.84Z"/><path class="cls-11" d="M148.17,54.61h-129a10.83,10.83,0,0,0-10.8,10.8v25.2a10.83,10.83,0,0,0,10.8,10.8h129A10.83,10.83,0,0,0,159,90.61V65.41A10.83,10.83,0,0,0,148.17,54.61ZM31.79,87.23l-2.1-5.46H22.15l-2,5.46H17.63l6.93-18h2.57l7.38,18Zm17.61-2.87A4.57,4.57,0,0,1,48.08,86a5.52,5.52,0,0,1-2,.89,12,12,0,0,1-2.91.3H36.32v-18h6.77a8.38,8.38,0,0,1,3.32.55,4.27,4.27,0,0,1,2,1.69,4.45,4.45,0,0,1,.71,2.38A4.09,4.09,0,0,1,48.44,76a4.48,4.48,0,0,1-1.89,1.65,4.71,4.71,0,0,1,2.52,1.64A4.39,4.39,0,0,1,49.94,82,5.27,5.27,0,0,1,49.41,84.36Zm19.24-1.21a7.56,7.56,0,0,1-3.14,3.28,9,9,0,0,1-4.38,1.11,8.53,8.53,0,0,1-4.55-1.23,7.91,7.91,0,0,1-3-3.36,10.18,10.18,0,0,1-1-4.5,9.8,9.8,0,0,1,2.41-7,8.2,8.2,0,0,1,6.23-2.54,8.64,8.64,0,0,1,4.5,1.19A7.8,7.8,0,0,1,68.7,73.4a10.81,10.81,0,0,1,1.05,4.84A10.63,10.63,0,0,1,68.64,83.15Zm18.41-3.53a12.34,12.34,0,0,1-.62,4.32,5.27,5.27,0,0,1-2.22,2.6,7.86,7.86,0,0,1-4.21,1,8.66,8.66,0,0,1-4.15-.87,5,5,0,0,1-2.3-2.53,12,12,0,0,1-.69-4.52V69.2h2.39V79.61a10.14,10.14,0,0,0,.44,3.46,3.31,3.31,0,0,0,1.5,1.72,5.2,5.2,0,0,0,2.6.6,5,5,0,0,0,3.75-1.19q1.12-1.19,1.12-4.59V69.2h2.39ZM104,71.32H98V87.23H95.62V71.32H89.67V69.2H104Zm26.14,15.91h-2.3V72.14l-5.24,15.1h-2.15l-5.22-15.36V87.23h-2.3v-18h3.59L120.76,82q.59,1.78.86,2.67.31-1,1-2.89L126.9,69.2h3.21Zm17.36,0H134v-18h13v2.13H136.39v5.52h10V79h-10v6.14h11.07Z"/></svg>