<svg id="Layer_1" data-name="Layer 1" xmlns="http://www.w3.org/2000/svg" xmlns:xlink="http://www.w3.org/1999/xlink" viewBox="0 0 167.33 155.99"><defs><style>.cls-1{fill:#fff;}.cls-2{fill:url(#New_Gradient_Swatch_3);}.cls-3{fill:url(#New_Gradient_Swatch_3-2);}.cls-4{fill:url(#New_Gradient_Swatch_3-3);}.cls-5{fill:url(#New_Gradient_Swatch_3-4);}.cls-6{fill:url(#New_Gradient_Swatch_3-5);}.cls-7{fill:#9b8579;}.cls-8{fill:url(#New_Gradient_Swatch_2);}.cls-9{fill:url(#New_Gradient_Swatch_2-2);}.cls-10{fill:url(#New_Gradient_Swatch_2-3);}.cls-11{fill:url(#New_Gradient_Swatch_2-4);}.cls-12{fill:url(#New_Gradient_Swatch_2-5);}</style><linearGradient id="New_Gradient_Swatch_3" x1="46.1" y1="2.75" x2="46.1" y2="49.21" gradientUnits="userSpaceOnUse"><stop offset="0" stop-color="#c8c6c7"/><stop offset="1" stop-color="#d3519d"/></linearGradient><linearGradient id="New_Gradient_Swatch_3-2" x1="103.72" y1="2.75" x2="103.72" y2="49.21" xlink:href="#New_Gradient_Swatch_3"/><linearGradient id="New_Gradient_Swatch_3-3" x1="28.37" y1="2.75" x2="28.37" y2="49.21" xlink:href="#New_Gradient_Swatch_3"/><linearGradient id="New_Gradient_Swatch_3-4" x1="83.67" y1="2.75" x2="83.67" y2="49.21" xlink:href="#New_Gradient_Swatch_3"/><linearGradient id="New_Gradient_Swatch_3-5" x1="122.63" y1="2.75" x2="122.63" y2="49.21" xlink:href="#New_Gradient_Swatch_3"/><linearGradient id="New_Gradient_Swatch_2" x1="46.1" y1="106.75" x2="46.1" y2="153.21" gradientUnits="userSpaceOnUse"><stop offset="0" stop-color="#b1c6c7"/><stop offset="1" stop-color="#2c80a9"/></linearGradient><linearGradient id="New_Gradient_Swatch_2-2" x1="103.72" y1="106.75" x2="103.72" y2="153.21" xlink:href="#New_Gradient_Swatch_2"/><linearGradient id="New_Gradient_Swatch_2-3" x1="28.37" y1="106.75" x2="28.37" y2="153.21" xlink:href="#New_Gradient_Swatch_2"/><linearGradient id="New_Gradient_Swatch_2-4" x1="83.67" y1="106.75" x2="83.67" y2="153.21" xlink:href="#New_Gradient_Swatch_2"/><linearGradient id="New_Gradient_Swatch_2-5" x1="122.63" y1="106.75" x2="122.63" y2="153.21" xlink:href="#New_Gradient_Swatch_2"/></defs><title>artwork_button</title><rect class="cls-1" x="11.02" y="108.46" width="145.3" height="43.5" rx="12" ry="12"/><rect class="cls-1" x="11.02" y="56.24" width="145.3" height="43.5" rx="12" ry="12"/><rect class="cls-1" x="11.02" y="3.4" width="145.3" height="43.5" rx="12" ry="12"/><path class="cls-2" d="M50.41,23.73a2.93,2.93,0,0,0,.48-1.62A2.69,2.69,0,0,0,50,20,4.35,4.35,0,0,0,47,19.18H41.32v6h5.13A7.69,7.69,0,0,0,49,24.81,2.72,2.72,0,0,0,50.41,23.73Z"/><path class="cls-3" d="M107,19.83a5.91,5.91,0,0,0-3.22-.9,6.1,6.1,0,0,0-4.36,1.74q-1.83,1.74-1.83,5.81a7.23,7.23,0,0,0,1.75,5.14,6.12,6.12,0,0,0,8.83,0,7.66,7.66,0,0,0,1.74-5.38,9.24,9.24,0,0,0-.74-3.85A5.72,5.72,0,0,0,107,19.83Z"/><path class="cls-4" d="M28.26,19.08a23,23,0,0,1-1,3.45l-2,5.29h6.12l-1.88-5Q28.68,20.55,28.26,19.08Z"/><path class="cls-5" d="M148.17,2.6h-129A10.83,10.83,0,0,0,8.37,13.4V38.6a10.83,10.83,0,0,0,10.8,10.8h129A10.83,10.83,0,0,0,159,38.6V13.4A10.83,10.83,0,0,0,148.17,2.6ZM34.27,35.23l-2.1-5.46H24.62l-2,5.46H20.1l6.93-18H29.6l7.38,18Zm17.56,0-2.39-3.75q-1-1.62-1.72-2.49a5.43,5.43,0,0,0-1.21-1.21,3.6,3.6,0,0,0-1.09-.48,7.2,7.2,0,0,0-1.33-.09H41.32v8H38.93v-18h8a10.65,10.65,0,0,1,3.67.49,4,4,0,0,1,2,1.72,5.12,5.12,0,0,1,.75,2.72,4.54,4.54,0,0,1-1.24,3.24A6.29,6.29,0,0,1,48.27,27a6.2,6.2,0,0,1,1.44.9,12.42,12.42,0,0,1,2,2.4l3.14,4.91ZM69.58,19.32h-6V35.23H61.23V19.32H55.28V17.19h14.3ZM88.64,35.23h-2.3l-3.8-13.74q-.48-1.72-.57-2.12-.28,1.24-.53,2.12L77.62,35.23H75.18l-4.79-18h2.45L75.59,29q.44,1.86.76,3.69.69-2.89.81-3.33l3.43-12.18h2.88l2.58,9.13a48.47,48.47,0,0,1,1.4,6.39q.34-1.71.9-3.93l2.83-11.59h2.4Zm22.59-4.09a7.56,7.56,0,0,1-3.14,3.28,9,9,0,0,1-4.38,1.11,8.53,8.53,0,0,1-4.55-1.23,7.91,7.91,0,0,1-3-3.36,10.18,10.18,0,0,1-1-4.5,9.8,9.8,0,0,1,2.41-7,8.2,8.2,0,0,1,6.23-2.54,8.64,8.64,0,0,1,4.5,1.19,7.8,7.8,0,0,1,3.06,3.33,10.81,10.81,0,0,1,1.05,4.84A10.63,10.63,0,0,1,111.23,31.14Zm17.12,4.09L126,31.47q-1-1.62-1.72-2.49A5.43,5.43,0,0,0,123,27.78a3.6,3.6,0,0,0-1.09-.48,7.2,7.2,0,0,0-1.33-.09h-2.77v8h-2.39v-18h8a10.65,10.65,0,0,1,3.67.49,4,4,0,0,1,2,1.72,5.12,5.12,0,0,1,.75,2.72,4.54,4.54,0,0,1-1.24,3.24A6.29,6.29,0,0,1,124.79,27a6.2,6.2,0,0,1,1.44.9,12.42,12.42,0,0,1,2,2.4l3.14,4.91Zm16.93,0-6.42-9.13-3,2.88v6.25h-2.39v-18h2.39v8.95l9-8.95h3.24l-7.57,7.31,7.9,10.73Z"/><path class="cls-6" d="M126.93,23.73a2.93,2.93,0,0,0,.48-1.62,2.69,2.69,0,0,0-.93-2.1,4.35,4.35,0,0,0-2.93-.82h-5.71v6H123a7.69,7.69,0,0,0,2.56-.34A2.72,2.72,0,0,0,126.93,23.73Z"/><path class="cls-7" d="M50.41,75.73a2.93,2.93,0,0,0,.48-1.62A2.69,2.69,0,0,0,50,72,4.35,4.35,0,0,0,47,71.18H41.32v6h5.13A7.69,7.69,0,0,0,49,76.81,2.72,2.72,0,0,0,50.41,75.73Z"/><path class="cls-7" d="M107,71.83a5.91,5.91,0,0,0-3.22-.9,6.1,6.1,0,0,0-4.36,1.74q-1.83,1.74-1.83,5.81a7.23,7.23,0,0,0,1.75,5.14,6.12,6.12,0,0,0,8.83,0,7.66,7.66,0,0,0,1.74-5.38,9.24,9.24,0,0,0-.74-3.85A5.72,5.72,0,0,0,107,71.83Z"/><path class="cls-7" d="M28.26,71.08a23,23,0,0,1-1,3.45l-2,5.29h6.12l-1.88-5Q28.68,72.55,28.26,71.08Z"/><path class="cls-7" d="M148.17,54.6h-129A10.83,10.83,0,0,0,8.37,65.4V90.6a10.83,10.83,0,0,0,10.8,10.8h129A10.83,10.83,0,0,0,159,90.6V65.4A10.83,10.83,0,0,0,148.17,54.6ZM34.27,87.23l-2.1-5.46H24.62l-2,5.46H20.1l6.93-18H29.6l7.38,18Zm17.56,0-2.39-3.75q-1-1.62-1.72-2.49a5.43,5.43,0,0,0-1.21-1.21,3.6,3.6,0,0,0-1.09-.48,7.2,7.2,0,0,0-1.33-.09H41.32v8H38.93v-18h8a10.65,10.65,0,0,1,3.67.49,4,4,0,0,1,2,1.72,5.12,5.12,0,0,1,.75,2.72,4.54,4.54,0,0,1-1.24,3.24A6.29,6.29,0,0,1,48.27,79a6.2,6.2,0,0,1,1.44.9,12.42,12.42,0,0,1,2,2.4l3.14,4.91ZM69.58,71.32h-6V87.23H61.23V71.32H55.28V69.19h14.3ZM88.64,87.23h-2.3l-3.8-13.74q-.48-1.72-.57-2.12-.28,1.24-.53,2.12L77.62,87.23H75.18l-4.79-18h2.45L75.59,81q.44,1.86.76,3.69.69-2.89.81-3.33l3.43-12.18h2.88l2.58,9.13a48.47,48.47,0,0,1,1.4,6.39q.34-1.71.9-3.93l2.83-11.59h2.4Zm22.59-4.09a7.56,7.56,0,0,1-3.14,3.28,9,9,0,0,1-4.38,1.11,8.53,8.53,0,0,1-4.55-1.23,7.91,7.91,0,0,1-3-3.36,10.18,10.18,0,0,1-1-4.5,9.8,9.8,0,0,1,2.41-7,8.2,8.2,0,0,1,6.23-2.54,8.64,8.64,0,0,1,4.5,1.19,7.8,7.8,0,0,1,3.06,3.33,10.81,10.81,0,0,1,1.05,4.84A10.63,10.63,0,0,1,111.23,83.14Zm17.12,4.09L126,83.47q-1-1.62-1.72-2.49A5.43,5.43,0,0,0,123,79.78a3.6,3.6,0,0,0-1.09-.48,7.2,7.2,0,0,0-1.33-.09h-2.77v8h-2.39v-18h8a10.65,10.65,0,0,1,3.67.49,4,4,0,0,1,2,1.72,5.12,5.12,0,0,1,.75,2.72,4.54,4.54,0,0,1-1.24,3.24A6.29,6.29,0,0,1,124.79,79a6.2,6.2,0,0,1,1.44.9,12.42,12.42,0,0,1,2,2.4l3.14,4.91Zm16.93,0-6.42-9.13-3,2.88v6.25h-2.39v-18h2.39v8.95l9-8.95h3.24l-7.57,7.31,7.9,10.73Z"/><path class="cls-7" d="M126.93,75.73a2.93,2.93,0,0,0,.48-1.62,2.69,2.69,0,0,0-.93-2.1,4.35,4.35,0,0,0-2.93-.82h-5.71v6H123a7.69,7.69,0,0,0,2.56-.34A2.72,2.72,0,0,0,126.93,75.73Z"/><path class="cls-8" d="M50.41,127.73a2.93,2.93,0,0,0,.48-1.62A2.69,2.69,0,0,0,50,124a4.35,4.35,0,0,0-2.93-.82H41.32v6h5.13a7.69,7.69,0,0,0,2.56-.34A2.72,2.72,0,0,0,50.41,127.73Z"/><path class="cls-9" d="M107,123.83a5.91,5.91,0,0,0-3.22-.9,6.1,6.1,0,0,0-4.36,1.74q-1.83,1.74-1.83,5.81a7.23,7.23,0,0,0,1.75,5.14,6.12,6.12,0,0,0,8.83,0,7.66,7.66,0,0,0,1.74-5.38,9.24,9.24,0,0,0-.74-3.85A5.72,5.72,0,0,0,107,123.83Z"/><path class="cls-10" d="M28.26,123.08a23,23,0,0,1-1,3.45l-2,5.29h6.12l-1.88-5Q28.68,124.55,28.26,123.08Z"/><path class="cls-11" d="M148.17,106.6h-129a10.83,10.83,0,0,0-10.8,10.8v25.2a10.83,10.83,0,0,0,10.8,10.8h129A10.83,10.83,0,0,0,159,142.6V117.4A10.83,10.83,0,0,0,148.17,106.6ZM34.27,139.23l-2.1-5.46H24.62l-2,5.46H20.1l6.93-18H29.6l7.38,18Zm17.56,0-2.39-3.75q-1-1.62-1.72-2.49a5.43,5.43,0,0,0-1.21-1.21,3.6,3.6,0,0,0-1.09-.48,7.2,7.2,0,0,0-1.33-.09H41.32v8H38.93v-18h8a10.65,10.65,0,0,1,3.67.49,4,4,0,0,1,2,1.72,5.12,5.12,0,0,1,.75,2.72,4.54,4.54,0,0,1-1.24,3.24A6.29,6.29,0,0,1,48.27,131a6.2,6.2,0,0,1,1.44.9,12.42,12.42,0,0,1,2,2.4l3.14,4.91Zm17.76-15.91h-6v15.91H61.23V123.32H55.28v-2.13h14.3Zm19.06,15.91h-2.3l-3.8-13.74q-.48-1.72-.57-2.12-.28,1.24-.53,2.12l-3.83,13.74H75.18l-4.79-18h2.45L75.59,133q.44,1.86.76,3.69.69-2.89.81-3.33l3.43-12.18h2.88l2.58,9.13a48.47,48.47,0,0,1,1.4,6.39q.34-1.71.9-3.93l2.83-11.59h2.4Zm22.59-4.09a7.56,7.56,0,0,1-3.14,3.28,9,9,0,0,1-4.38,1.11,8.53,8.53,0,0,1-4.55-1.23,7.91,7.91,0,0,1-3-3.36,10.18,10.18,0,0,1-1-4.5,9.8,9.8,0,0,1,2.41-7,8.2,8.2,0,0,1,6.23-2.54,8.64,8.64,0,0,1,4.5,1.19,7.8,7.8,0,0,1,3.06,3.33,10.81,10.81,0,0,1,1.05,4.84A10.63,10.63,0,0,1,111.23,135.14Zm17.12,4.09L126,135.47q-1-1.62-1.72-2.49a5.43,5.43,0,0,0-1.21-1.21,3.6,3.6,0,0,0-1.09-.48,7.2,7.2,0,0,0-1.33-.09h-2.77v8h-2.39v-18h8a10.65,10.65,0,0,1,3.67.49,4,4,0,0,1,2,1.72,5.12,5.12,0,0,1,.75,2.72,4.54,4.54,0,0,1-1.24,3.24,6.29,6.29,0,0,1-3.84,1.67,6.2,6.2,0,0,1,1.44.9,12.42,12.42,0,0,1,2,2.4l3.14,4.91Zm16.93,0-6.42-9.13-3,2.88v6.25h-2.39v-18h2.39v8.95l9-8.95h3.24l-7.57,7.31,7.9,10.73Z"/><path class="cls-12" d="M126.93,127.73a2.93,2.93,0,0,0,.48-1.62,2.69,2.69,0,0,0-.93-2.1,4.35,4.35,0,0,0-2.93-.82h-5.71v6H123a7.69,7.69,0,0,0,2.56-.34A2.72,2.72,0,0,0,126.93,127.73Z"/></svg>