<svg id="Layer_1" data-name="Layer 1" xmlns="http://www.w3.org/2000/svg" xmlns:xlink="http://www.w3.org/1999/xlink" viewBox="0 0 50.94 101.88"><defs><style>.cls-1{fill:url(#New_Gradient_Swatch_3);}.cls-2{fill:url(#New_Gradient_Swatch_2);}</style><linearGradient id="New_Gradient_Swatch_3" x1="0.71" y1="25.47" x2="50.23" y2="25.47" gradientTransform="translate(50.94) rotate(90)" gradientUnits="userSpaceOnUse"><stop offset="0" stop-color="#c8c6c7"/><stop offset="1" stop-color="#d94da8"/></linearGradient><linearGradient id="New_Gradient_Swatch_2" x1="25.47" y1="53.23" x2="25.47" y2="100.14" gradientUnits="userSpaceOnUse"><stop offset="0" stop-color="#b1c6c7"/><stop offset="1" stop-color="#2b80a9"/></linearGradient></defs><title>back_button_up</title><path class="cls-1" d="M50.23,25.47A24.76,24.76,0,1,0,25.47,50.23,24.72,24.72,0,0,0,50.23,25.47Zm-28,13.78V22.67H16.28c-1.13,0-.87-1.4,0-2.26L24.74,12a.94.94,0,0,1,1.46,0l8.65,8.65c.73.73,1.07,2.13,0,2.13h-6V39.38C27.87,40.85,23.41,41,22.21,39.25Z"/><path class="cls-2" d="M50.23,76.41a24.76,24.76,0,1,0-24.76,24.76A24.72,24.72,0,0,0,50.23,76.41Zm-28,13.78V73.61H16.28c-1.13,0-.87-1.4,0-2.26l8.45-8.45a.94.94,0,0,1,1.46,0l8.65,8.65c.73.73,1.07,2.13,0,2.13h-6V90.32C27.87,91.79,23.41,92,22.21,90.19Z"/></svg>