<svg id="Layer_1" data-name="Layer 1" xmlns="http://www.w3.org/2000/svg" xmlns:xlink="http://www.w3.org/1999/xlink" viewBox="0 0 50.94 101.88"><defs><style>.cls-1{fill:url(#New_Gradient_Swatch_3);}.cls-2{fill:url(#New_Gradient_Swatch_2);}</style><linearGradient id="New_Gradient_Swatch_3" x1="25.47" y1="0.71" x2="25.47" y2="50.23" gradientUnits="userSpaceOnUse"><stop offset="0" stop-color="#c8c6c7"/><stop offset="1" stop-color="#d94da8"/></linearGradient><linearGradient id="New_Gradient_Swatch_2" x1="25.47" y1="51.65" x2="25.47" y2="101.17" gradientUnits="userSpaceOnUse"><stop offset="0" stop-color="#b1c6c7"/><stop offset="1" stop-color="#2b80a9"/></linearGradient></defs><title>back_button_left</title><path class="cls-1" d="M25.47.71A24.76,24.76,0,1,0,50.23,25.47,24.72,24.72,0,0,0,25.47.71Zm13.78,28H22.67v5.92c0,1.13-1.4.87-2.26,0L12,26.2a.94.94,0,0,1,0-1.46l8.65-8.65c.73-.73,2.13-1.07,2.13,0v6H39.38C40.85,23.07,41,27.53,39.25,28.73Z"/><path class="cls-2" d="M25.47,51.65A24.76,24.76,0,1,0,50.23,76.41,24.72,24.72,0,0,0,25.47,51.65Zm13.78,28H22.67V85.6c0,1.13-1.4.87-2.26,0L12,77.14a.94.94,0,0,1,0-1.46L20.61,67c.73-.73,2.13-1.07,2.13,0v6H39.38C40.85,74,41,78.47,39.25,79.67Z"/></svg>