<svg id="Layer_1" data-name="Layer 1" xmlns="http://www.w3.org/2000/svg" xmlns:xlink="http://www.w3.org/1999/xlink" viewBox="0 0 50.94 101.88"><defs><style>.cls-1{fill:url(#New_Gradient_Swatch_3);}.cls-2{fill:url(#New_Gradient_Swatch_2);}</style><linearGradient id="New_Gradient_Swatch_3" x1="25.47" y1="50.23" x2="25.47" y2="0.71" gradientTransform="translate(50.94 50.94) rotate(180)" gradientUnits="userSpaceOnUse"><stop offset="0" stop-color="#c8c6c7"/><stop offset="1" stop-color="#d94da8"/></linearGradient><linearGradient id="New_Gradient_Swatch_2" x1="25.47" y1="101.17" x2="25.47" y2="51.65" gradientTransform="translate(50.94 152.82) rotate(180)" gradientUnits="userSpaceOnUse"><stop offset="0" stop-color="#b1c6c7"/><stop offset="1" stop-color="#2b80a9"/></linearGradient></defs><title>back_button_right</title><path class="cls-1" d="M25.47,50.23A24.76,24.76,0,1,0,.71,25.47,24.72,24.72,0,0,0,25.47,50.23Zm-13.78-28H28.27V16.28c0-1.13,1.4-.87,2.26,0L39,24.74a.94.94,0,0,1,0,1.46l-8.65,8.65c-.73.73-2.13,1.07-2.13,0v-6H11.56C10.09,27.87,9.89,23.41,11.69,22.21Z"/><path class="cls-2" d="M25.47,101.17A24.76,24.76,0,1,0,.71,76.41,24.72,24.72,0,0,0,25.47,101.17Zm-13.78-28H28.27V67.22c0-1.13,1.4-.87,2.26,0L39,75.68a.94.94,0,0,1,0,1.46L30.33,85.8c-.73.73-2.13,1.07-2.13,0v-6H11.56C10.09,78.81,9.89,74.35,11.69,73.15Z"/></svg>