<svg id="Layer_1" data-name="Layer 1" xmlns="http://www.w3.org/2000/svg" xmlns:xlink="http://www.w3.org/1999/xlink" viewBox="0 0 50.94 101.88"><defs><style>.cls-1{fill:url(#New_Gradient_Swatch_3);}.cls-2{fill:url(#New_Gradient_Swatch_3-2);}.cls-3{fill:url(#New_Gradient_Swatch_3-3);}.cls-4{fill:url(#New_Gradient_Swatch_3-4);}.cls-5{fill:url(#New_Gradient_Swatch_3-5);}.cls-6{fill:url(#New_Gradient_Swatch_3-6);}.cls-7{fill:url(#New_Gradient_Swatch_2);}.cls-8{fill:url(#New_Gradient_Swatch_2-2);}.cls-9{fill:url(#New_Gradient_Swatch_2-3);}.cls-10{fill:url(#New_Gradient_Swatch_2-4);}.cls-11{fill:url(#New_Gradient_Swatch_2-5);}.cls-12{fill:url(#New_Gradient_Swatch_2-6);}</style><linearGradient id="New_Gradient_Swatch_3" x1="19.48" y1="1.23" x2="19.48" y2="49.74" gradientUnits="userSpaceOnUse"><stop offset="0" stop-color="#c8c6c7"/><stop offset="1" stop-color="#d94da8"/></linearGradient><linearGradient id="New_Gradient_Swatch_3-2" x1="26.67" y1="1.23" x2="26.67" y2="49.74" xlink:href="#New_Gradient_Swatch_3"/><linearGradient id="New_Gradient_Swatch_3-3" x1="8.64" y1="1.23" x2="8.64" y2="49.74" xlink:href="#New_Gradient_Swatch_3"/><linearGradient id="New_Gradient_Swatch_3-4" x1="12.15" y1="1.23" x2="12.15" y2="49.74" xlink:href="#New_Gradient_Swatch_3"/><linearGradient id="New_Gradient_Swatch_3-5" x1="36.08" y1="1.23" x2="36.08" y2="49.74" xlink:href="#New_Gradient_Swatch_3"/><linearGradient id="New_Gradient_Swatch_3-6" x1="25.47" y1="1.23" x2="25.47" y2="49.74" xlink:href="#New_Gradient_Swatch_3"/><linearGradient id="New_Gradient_Swatch_2" x1="19.48" y1="52.38" x2="19.48" y2="100.3" gradientUnits="userSpaceOnUse"><stop offset="0" stop-color="#b1c6c7"/><stop offset="1" stop-color="#2b80a9"/></linearGradient><linearGradient id="New_Gradient_Swatch_2-2" x1="26.67" y1="52.38" x2="26.67" y2="100.3" xlink:href="#New_Gradient_Swatch_2"/><linearGradient id="New_Gradient_Swatch_2-3" x1="8.66" y1="52.38" x2="8.66" y2="100.3" xlink:href="#New_Gradient_Swatch_2"/><linearGradient id="New_Gradient_Swatch_2-4" x1="12.17" y1="52.38" x2="12.17" y2="100.3" xlink:href="#New_Gradient_Swatch_2"/><linearGradient id="New_Gradient_Swatch_2-5" x1="36.07" y1="52.38" x2="36.07" y2="100.3" xlink:href="#New_Gradient_Swatch_2"/><linearGradient id="New_Gradient_Swatch_2-6" x1="25.47" y1="52.38" x2="25.47" y2="100.3" xlink:href="#New_Gradient_Swatch_2"/></defs><title>bandcamp_logo</title><path class="cls-1" d="M19.5,35.6c-.55,0-.91.44-.91,1.16s.35,1.14.86,1.15.92-.45.91-1.16S20,35.61,19.5,35.6Z"/><path class="cls-2" d="M26.93,37c-.25.11-.85-.14-1,.49-.06.39.3.43.59.44a.72.72,0,0,0,.81-.67C27.38,37,27.31,36.88,26.93,37Z"/><path class="cls-3" d="M8.6,35.6c-.54,0-.86.42-.86,1.13s.37,1.17.91,1.17a1,1,0,0,0,.88-1.09C9.54,36.09,9.16,35.6,8.6,35.6Z"/><path class="cls-4" d="M12.65,36.9a6.74,6.74,0,0,0-.89.18.39.39,0,0,0-.15.71.89.89,0,0,0,.87,0,.66.66,0,0,0,.39-.65C12.87,37,12.88,36.86,12.65,36.9Z"/><path class="cls-5" d="M36,35.61c-.52,0-.88.5-.86,1.15s.42,1.15,1,1.14.86-.51.85-1.16S36.58,35.59,36,35.61Z"/><path class="cls-6" d="M40,29.3l-.28.46c-.24-.21.22-.54-.17-.69a2.07,2.07,0,0,0-.74-.09h-.32c-.76-.07-1.27,0-1.56,1a2.66,2.66,0,0,1-2.69,1.7A2.47,2.47,0,0,1,31.77,30a6.17,6.17,0,0,1-.18-4.61c.68-2,3.52-2.22,4.63-1.4a2,2,0,0,1,.83,1.27c.06.28.16.39.45.38.61,0,1.22,0,1.83,0,.32,0,.43-.05.37-.42A4,4,0,0,0,37.19,22a6.47,6.47,0,0,0-5-.08,5.57,5.57,0,0,0-3.46,4.7,7.21,7.21,0,0,0,.14,2.93,5.59,5.59,0,0,0,3,3.79H24.68a5.72,5.72,0,0,0,2.66-3.91,8.36,8.36,0,0,0-.09-4.1A4.92,4.92,0,0,0,22,21.52,4.59,4.59,0,0,0,18.49,23c-.17-.14-.1-.31-.1-.46,0-1.58,0-3.16,0-4.73,0-.35-.1-.47-.45-.45-.64,0-1.29,0-2.07,0L21.28,8H43.07a24.79,24.79,0,1,0,5,7.31ZM19.17,24.75a3,3,0,0,1,4.88.06,5.06,5.06,0,0,1,.83,2.95,4.87,4.87,0,0,1-.6,2.37,3,3,0,0,1-4.89.5A5.14,5.14,0,0,1,19.17,24.75Zm-.89,8.09c0-.23,0-.45.07-.76.64.3,1,1,1.6,1.13l0,.13c-.39,0-.78,0-1.16,0S18.24,33.19,18.28,32.84ZM6.86,33a16.46,16.46,0,0,0,1.32-2.13q3.59-6.23,7.16-12.47a1.77,1.77,0,0,1,.44-.56c0,1.47.1,2.95.1,4.42,0,3.53,0,7.06,0,10.59,0,.31,0,.54-.43.53-2.76,0-5.52,0-8.28,0a2,2,0,0,1-.32-.05Zm1,5.39s-.1-.13-.17,0c-.24.41-.57.17-.88.12V33.71c.88,0,.88,0,.88.91,0,.18,0,.36,0,.57.34-.06.58-.29.92-.3a1.66,1.66,0,0,1,1.72,1.92C10.29,38.36,9.34,39,7.91,38.35Zm9,.2c-.44,0-.36-.28-.36-.55,0-.55,0-1.11,0-1.66,0-.37-.12-.74-.61-.73a.76.76,0,0,0-.77.74,6.87,6.87,0,0,0,0,1.5c0,.52-.1.78-.67.71s-1.07.25-1.54-.2c-.1-.09-.23.05-.34.1a2,2,0,0,1-1.16.12,1,1,0,0,1-.85-1,.92.92,0,0,1,.78-1c.38-.09.78-.13,1.16-.2.18,0,.36-.1.36-.33s-.16-.35-.37-.39-.68-.09-.87.24-.5.18-.76.21c-.11,0-.15-.07-.14-.17a1.07,1.07,0,0,1,0-.21c.17-.58.89-.9,1.81-.8A1.11,1.11,0,0,1,13.72,36c0,.5,0,1,0,1.5,0,.19,0,.41.3.39s.24-.21.25-.38c0-.36,0-.72,0-1.07s0-.68,0-1c0-.15-.07-.36.13-.42s.51-.13.6,0,.27.09.4,0a1.22,1.22,0,0,1,1.95,1.18c0,.59,0,1.18,0,1.77C17.37,38.41,17.26,38.55,16.87,38.54Zm4.31-.4a.42.42,0,0,1-.7.32c-.2-.17-.28-.1-.44,0a1.54,1.54,0,0,1-2.23-1.1,1.85,1.85,0,0,1,1.09-2.41,1.91,1.91,0,0,1,1.43.28c0-.43,0-.8,0-1.17s.22-.33.45-.33.42,0,.42.31C21.18,35.39,21.19,36.77,21.18,38.15Zm3.56-.39a1.38,1.38,0,0,1-1.37.85,1.55,1.55,0,0,1-1.55-.84,2.07,2.07,0,0,1-.22-1A1.74,1.74,0,0,1,24.07,35a1.2,1.2,0,0,1,.67.59c.08.19.27.44,0,.56s-.58.2-.75-.14a.73.73,0,0,0-.89-.41.85.85,0,0,0-.65.77,1.54,1.54,0,0,0,.07.9.81.81,0,0,0,.69.6.67.67,0,0,0,.74-.49c.15-.43.53-.32.76-.24S24.82,37.57,24.74,37.76Zm8.64.79c-.45,0-.43-.23-.44-.54a17.27,17.27,0,0,0,0-1.77c0-.35-.12-.64-.56-.64a.6.6,0,0,0-.65.64c0,.63,0,1.25,0,1.88,0,.33-.1.43-.43.43s-.46-.09-.44-.43c0-.61,0-1.22,0-1.83,0-.32,0-.64-.44-.68a.63.63,0,0,0-.75.6,10.26,10.26,0,0,0,0,1.66c0,.5-.1.74-.64.69s-1.11.27-1.59-.21c-.07-.07-.19,0-.29.09a2,2,0,0,1-1.21.13,1,1,0,0,1-.84-1,.91.91,0,0,1,.73-1c.4-.1.81-.14,1.21-.22.17,0,.36-.09.36-.33s-.18-.34-.38-.38-.68-.07-.9.29a.54.54,0,0,1-.8.14c-.22-.14,0-.43.1-.62a1.84,1.84,0,0,1,2-.46c.6.18.81.51.81,1.28,0,.43,0,.86,0,1.29,0,.17,0,.36.28.36s.29-.16.29-.35c0-.39,0-.79,0-1.18h0c0-.3,0-.61,0-.91s-.11-.4.14-.45.49-.13.6.07.21.09.31,0a1.21,1.21,0,0,1,1.53.08c.17.15.27.1.4,0A1.32,1.32,0,0,1,33.26,35c.5.22.54.72.55,1.19s0,1.18,0,1.77C33.81,38.28,33.84,38.54,33.38,38.55Zm4.32-1c-.34,1-1.22,1.29-2.45.75a3.68,3.68,0,0,0,0,1.32H34.4c0-1.43,0-2.86,0-4.29a.43.43,0,0,1,.72-.29c.19.15.25.08.39,0a1.55,1.55,0,0,1,2.28,1.17A2.44,2.44,0,0,1,37.71,37.56Zm-.87-4.3a12,12,0,0,0,1.33-.83C37.75,33.41,37.72,33.43,36.84,33.26Z"/><path class="cls-7" d="M19.5,86.53c-.55,0-.91.44-.91,1.15s.34,1.14.86,1.15.92-.45.91-1.15S20,86.54,19.5,86.53Z"/><path class="cls-8" d="M26.93,87.89c-.25.11-.85-.14-1,.49-.06.39.3.43.59.44a.72.72,0,0,0,.81-.67C27.38,87.94,27.31,87.8,26.93,87.89Z"/><path class="cls-9" d="M8.62,86.53c-.54,0-.86.42-.86,1.13s.37,1.16.91,1.16a1,1,0,0,0,.88-1.09C9.56,87,9.18,86.52,8.62,86.53Z"/><path class="cls-10" d="M12.66,87.83a6.73,6.73,0,0,0-.89.18.39.39,0,0,0-.15.71.89.89,0,0,0,.87,0,.66.66,0,0,0,.39-.65C12.89,87.94,12.9,87.79,12.66,87.83Z"/><path class="cls-11" d="M36,86.53c-.51,0-.87.5-.86,1.15s.42,1.15,1,1.14.86-.5.85-1.16S36.57,86.51,36,86.53Z"/><path class="cls-12" d="M40,80.23l-.28.46c-.24-.21.22-.54-.17-.69a2.07,2.07,0,0,0-.74-.09H38.5c-.76-.07-1.26,0-1.56,1a2.66,2.66,0,0,1-2.68,1.7A2.46,2.46,0,0,1,31.77,81a6.16,6.16,0,0,1-.18-4.61c.68-2,3.51-2.21,4.62-1.4A2,2,0,0,1,37,76.23c.06.28.16.39.45.38.61,0,1.22,0,1.83,0,.32,0,.43-.05.37-.42a4,4,0,0,0-2.52-3.29,6.46,6.46,0,0,0-5-.08,5.56,5.56,0,0,0-3.45,4.69,7.2,7.2,0,0,0,.14,2.93,5.58,5.58,0,0,0,3,3.79h-7.2a5.71,5.71,0,0,0,2.66-3.9,8.35,8.35,0,0,0-.09-4.09A4.92,4.92,0,0,0,22,72.47a4.59,4.59,0,0,0-3.5,1.47c-.17-.14-.1-.31-.1-.46,0-1.58,0-3.15,0-4.73,0-.35-.1-.46-.45-.45-.64,0-1.29,0-2.07,0L21.28,59H43a24.76,24.76,0,1,0,5,7.3ZM19.18,75.69a3,3,0,0,1,4.88.06,5.05,5.05,0,0,1,.82,2.94,4.87,4.87,0,0,1-.6,2.36,3,3,0,0,1-4.89.49A5.13,5.13,0,0,1,19.18,75.69Zm-.89,8.08c0-.23,0-.45.07-.76.64.3,1,1,1.6,1.13l0,.13c-.39,0-.78,0-1.16,0S18.25,84.12,18.29,83.77Zm-11.41.12a16.44,16.44,0,0,0,1.32-2.12q3.59-6.22,7.16-12.46a1.77,1.77,0,0,1,.44-.56c0,1.47.1,2.95.1,4.42,0,3.52,0,7,0,10.57,0,.31,0,.54-.43.53-2.76,0-5.51,0-8.27,0a2,2,0,0,1-.32-.05Zm1,5.38s-.1-.13-.16,0c-.24.41-.57.17-.88.12V84.64c.88,0,.88,0,.88.91,0,.18,0,.35,0,.57.34-.06.58-.29.92-.3a1.66,1.66,0,0,1,1.72,1.92C10.31,89.28,9.36,89.88,7.93,89.27Zm9,.2c-.43,0-.36-.28-.36-.55,0-.55,0-1.11,0-1.66,0-.37-.12-.74-.6-.73a.76.76,0,0,0-.77.74,6.87,6.87,0,0,0,0,1.5c0,.52-.1.77-.67.71s-1.07.25-1.54-.2c-.1-.09-.23.05-.34.1a2,2,0,0,1-1.16.12,1,1,0,0,1-.85-1,.92.92,0,0,1,.78-1c.38-.09.77-.13,1.16-.2.18,0,.36-.1.36-.33s-.16-.35-.37-.38-.68-.09-.87.24-.5.18-.76.21c-.11,0-.15-.07-.14-.17a1.07,1.07,0,0,1,0-.21c.17-.58.89-.9,1.81-.8a1.1,1.1,0,0,1,1.13,1.12c0,.5,0,1,0,1.5,0,.19,0,.41.3.38s.24-.21.25-.38c0-.36,0-.71,0-1.07s0-.68,0-1c0-.15-.07-.36.13-.42s.51-.13.6,0,.27.09.4,0a1.22,1.22,0,0,1,1.95,1.18c0,.59,0,1.18,0,1.77C17.38,89.34,17.27,89.48,16.88,89.47Zm4.31-.4a.42.42,0,0,1-.7.32c-.2-.17-.28-.1-.44,0a1.54,1.54,0,0,1-2.23-1.1,1.85,1.85,0,0,1,1.09-2.41,1.91,1.91,0,0,1,1.43.28c0-.43,0-.8,0-1.17s.22-.33.45-.33.42,0,.42.31C21.18,86.32,21.2,87.7,21.19,89.07Zm3.55-.39a1.38,1.38,0,0,1-1.37.85,1.55,1.55,0,0,1-1.55-.84,2.07,2.07,0,0,1-.22-1A1.74,1.74,0,0,1,24.07,86a1.19,1.19,0,0,1,.67.59c.08.18.27.44,0,.56s-.58.2-.75-.14a.73.73,0,0,0-.89-.41.85.85,0,0,0-.64.77,1.54,1.54,0,0,0,.07.9.81.81,0,0,0,.68.6.67.67,0,0,0,.74-.49c.15-.43.52-.32.76-.24S24.82,88.5,24.74,88.68Zm8.63.79c-.45,0-.43-.23-.44-.54a17.25,17.25,0,0,0,0-1.77c0-.35-.12-.64-.55-.64a.6.6,0,0,0-.65.64c0,.62,0,1.25,0,1.88,0,.33-.1.43-.43.43s-.46-.09-.44-.43c0-.61,0-1.22,0-1.82,0-.32,0-.64-.44-.68a.63.63,0,0,0-.75.59,10.25,10.25,0,0,0,0,1.66c0,.5-.1.74-.64.68s-1.1.27-1.59-.21c-.07-.07-.19,0-.29.09a2,2,0,0,1-1.21.12.94.94,0,0,1-.84-1,.91.91,0,0,1,.73-1c.4-.1.81-.14,1.21-.22.17,0,.36-.09.36-.33s-.18-.34-.38-.38-.68-.07-.9.29a.54.54,0,0,1-.8.14c-.22-.14,0-.43.1-.62a1.84,1.84,0,0,1,2-.46c.6.18.81.51.81,1.28,0,.43,0,.86,0,1.29,0,.17,0,.36.28.36s.29-.16.29-.35c0-.39,0-.79,0-1.18h0c0-.3,0-.61,0-.91s-.11-.4.14-.45.48-.13.59.07.21.09.31,0a1.21,1.21,0,0,1,1.53.08c.17.15.27.1.4,0a1.32,1.32,0,0,1,1.46-.16c.5.22.54.72.54,1.19s0,1.18,0,1.77C33.8,89.2,33.83,89.46,33.37,89.47Zm4.32-1c-.34,1-1.22,1.29-2.45.75a3.67,3.67,0,0,0,0,1.31h-.86c0-1.43,0-2.85,0-4.28a.43.43,0,0,1,.72-.29c.19.15.25.07.39,0a1.55,1.55,0,0,1,2.28,1.17A2.44,2.44,0,0,1,37.69,88.48Zm-.87-4.29a12,12,0,0,0,1.33-.83C37.73,84.34,37.7,84.36,36.82,84.19Z"/></svg>