<svg id="Layer_1" data-name="Layer 1" xmlns="http://www.w3.org/2000/svg" xmlns:xlink="http://www.w3.org/1999/xlink" viewBox="0 0 154.83 104"><defs><style>.cls-1{fill:#fff;}.cls-2{fill:url(#New_Gradient_Swatch_3);}.cls-3{fill:url(#New_Gradient_Swatch_3-2);}.cls-4{fill:url(#New_Gradient_Swatch_3-3);}.cls-5{fill:url(#New_Gradient_Swatch_2);}.cls-6{fill:url(#New_Gradient_Swatch_2-2);}.cls-7{fill:url(#New_Gradient_Swatch_2-3);}</style><linearGradient id="New_Gradient_Swatch_3" x1="43.51" y1="4.85" x2="43.51" y2="48.07" gradientUnits="userSpaceOnUse"><stop offset="0" stop-color="#c8c6c7"/><stop offset="1" stop-color="#d3519d"/></linearGradient><linearGradient id="New_Gradient_Swatch_3-2" x1="93.21" y1="4.85" x2="93.21" y2="48.07" xlink:href="#New_Gradient_Swatch_3"/><linearGradient id="New_Gradient_Swatch_3-3" x1="77.42" y1="4.85" x2="77.42" y2="48.07" xlink:href="#New_Gradient_Swatch_3"/><linearGradient id="New_Gradient_Swatch_2" x1="43.51" y1="56.85" x2="43.51" y2="100.07" gradientUnits="userSpaceOnUse"><stop offset="0" stop-color="#b1c6c7"/><stop offset="1" stop-color="#2c80a9"/></linearGradient><linearGradient id="New_Gradient_Swatch_2-2" x1="93.21" y1="56.85" x2="93.21" y2="100.07" xlink:href="#New_Gradient_Swatch_2"/><linearGradient id="New_Gradient_Swatch_2-3" x1="77.42" y1="56.85" x2="77.42" y2="100.07" xlink:href="#New_Gradient_Swatch_2"/></defs><title>contact_button</title><rect class="cls-1" x="11.21" y="56.25" width="132.41" height="43.5" rx="12" ry="12"/><rect class="cls-1" x="11.21" y="4.45" width="132.41" height="43.5" rx="12" ry="12"/><path class="cls-2" d="M46.75,19.83a5.91,5.91,0,0,0-3.22-.9,6.1,6.1,0,0,0-4.36,1.74q-1.83,1.74-1.83,5.81a7.23,7.23,0,0,0,1.75,5.14,6.12,6.12,0,0,0,8.83,0,7.66,7.66,0,0,0,1.74-5.38,9.24,9.24,0,0,0-.74-3.85A5.72,5.72,0,0,0,46.75,19.83Z"/><path class="cls-3" d="M93.11,19.08a23,23,0,0,1-1,3.45l-2,5.29h6.12l-1.88-5Q93.53,20.55,93.11,19.08Z"/><path class="cls-4" d="M136.29,2.6H18.54A10.83,10.83,0,0,0,7.74,13.4V38.6a10.83,10.83,0,0,0,10.8,10.8H136.29a10.83,10.83,0,0,0,10.8-10.8V13.4A10.83,10.83,0,0,0,136.29,2.6ZM30,34a7.44,7.44,0,0,1-4.77,1.54,8.57,8.57,0,0,1-4.74-1.19,7.41,7.41,0,0,1-2.78-3.44,12.27,12.27,0,0,1-1-4.84,10.63,10.63,0,0,1,1.08-4.92A7.38,7.38,0,0,1,20.86,18a9,9,0,0,1,4.37-1.09,7.4,7.4,0,0,1,4.55,1.38,7.16,7.16,0,0,1,2.57,3.88L30,22.69a5.58,5.58,0,0,0-1.82-2.87,4.85,4.85,0,0,0-3-.9,5.83,5.83,0,0,0-3.48,1,5.26,5.26,0,0,0-2,2.68,10.77,10.77,0,0,0-.57,3.46,11,11,0,0,0,.67,4,5,5,0,0,0,2.09,2.57,5.85,5.85,0,0,0,3.06.85,5.13,5.13,0,0,0,3.4-1.16,5.92,5.92,0,0,0,1.88-3.43l2.39.6A8,8,0,0,1,30,34ZM51,31.14a7.56,7.56,0,0,1-3.14,3.28,9,9,0,0,1-4.38,1.11A8.53,8.53,0,0,1,39,34.3a7.91,7.91,0,0,1-3-3.36,10.18,10.18,0,0,1-1-4.5,9.8,9.8,0,0,1,2.41-7,8.2,8.2,0,0,1,6.23-2.54A8.64,8.64,0,0,1,48,18.06a7.8,7.8,0,0,1,3.06,3.33,10.81,10.81,0,0,1,1.05,4.84A10.63,10.63,0,0,1,51,31.14ZM69.4,35.23H66.95L57.47,21.05V35.23H55.19v-18h2.45l9.47,14.16V17.19H69.4Zm11,0H78V19.32H72.06V17.19h14.3v2.13h-6Zm18.73,0L97,29.76H89.47l-2,5.46H85l6.93-18h2.57l7.38,18ZM116.3,34a7.44,7.44,0,0,1-4.77,1.54,8.57,8.57,0,0,1-4.74-1.19A7.41,7.41,0,0,1,104,30.91a12.27,12.27,0,0,1-1-4.84,10.63,10.63,0,0,1,1.08-4.92A7.38,7.38,0,0,1,107.19,18a9,9,0,0,1,4.37-1.09,7.4,7.4,0,0,1,4.55,1.38,7.16,7.16,0,0,1,2.57,3.88l-2.35.55a5.58,5.58,0,0,0-1.82-2.87,4.85,4.85,0,0,0-3-.9,5.83,5.83,0,0,0-3.48,1,5.26,5.26,0,0,0-2,2.68,10.77,10.77,0,0,0-.57,3.46,11,11,0,0,0,.67,4,5,5,0,0,0,2.09,2.57,5.85,5.85,0,0,0,3.06.85,5.13,5.13,0,0,0,3.4-1.16,5.92,5.92,0,0,0,1.88-3.43l2.39.6A8,8,0,0,1,116.3,34Zm18.59-14.67h-6V35.23h-2.39V19.32h-5.94V17.19h14.3Z"/><path class="cls-5" d="M46.75,71.83a5.91,5.91,0,0,0-3.22-.9,6.1,6.1,0,0,0-4.36,1.74q-1.83,1.74-1.83,5.81a7.23,7.23,0,0,0,1.75,5.14,6.12,6.12,0,0,0,8.83,0,7.66,7.66,0,0,0,1.74-5.38,9.24,9.24,0,0,0-.74-3.85A5.72,5.72,0,0,0,46.75,71.83Z"/><path class="cls-6" d="M93.11,71.08a23,23,0,0,1-1,3.45l-2,5.29h6.12l-1.88-5Q93.53,72.55,93.11,71.08Z"/><path class="cls-7" d="M136.29,54.6H18.54A10.83,10.83,0,0,0,7.74,65.4V90.6a10.83,10.83,0,0,0,10.8,10.8H136.29a10.83,10.83,0,0,0,10.8-10.8V65.4A10.83,10.83,0,0,0,136.29,54.6ZM30,86a7.44,7.44,0,0,1-4.77,1.54,8.57,8.57,0,0,1-4.74-1.19,7.41,7.41,0,0,1-2.78-3.44,12.27,12.27,0,0,1-1-4.84,10.63,10.63,0,0,1,1.08-4.92A7.38,7.38,0,0,1,20.86,70a9,9,0,0,1,4.37-1.09,7.4,7.4,0,0,1,4.55,1.38,7.16,7.16,0,0,1,2.57,3.88L30,74.69a5.58,5.58,0,0,0-1.82-2.87,4.85,4.85,0,0,0-3-.9,5.83,5.83,0,0,0-3.48,1,5.26,5.26,0,0,0-2,2.68,10.77,10.77,0,0,0-.57,3.46,11,11,0,0,0,.67,4,5,5,0,0,0,2.09,2.57,5.85,5.85,0,0,0,3.06.85,5.13,5.13,0,0,0,3.4-1.16,5.92,5.92,0,0,0,1.88-3.43l2.39.6A8,8,0,0,1,30,86ZM51,83.14a7.56,7.56,0,0,1-3.14,3.28,9,9,0,0,1-4.38,1.11A8.53,8.53,0,0,1,39,86.3a7.91,7.91,0,0,1-3-3.36,10.18,10.18,0,0,1-1-4.5,9.8,9.8,0,0,1,2.41-7,8.2,8.2,0,0,1,6.23-2.54A8.64,8.64,0,0,1,48,70.06a7.8,7.8,0,0,1,3.06,3.33,10.81,10.81,0,0,1,1.05,4.84A10.63,10.63,0,0,1,51,83.14ZM69.4,87.23H66.95L57.47,73.05V87.23H55.19v-18h2.45l9.47,14.16V69.19H69.4Zm11,0H78V71.32H72.06V69.19h14.3v2.13h-6Zm18.73,0L97,81.76H89.47l-2,5.46H85l6.93-18h2.57l7.38,18ZM116.3,86a7.44,7.44,0,0,1-4.77,1.54,8.57,8.57,0,0,1-4.74-1.19A7.41,7.41,0,0,1,104,82.91a12.27,12.27,0,0,1-1-4.84,10.63,10.63,0,0,1,1.08-4.92A7.38,7.38,0,0,1,107.19,70a9,9,0,0,1,4.37-1.09,7.4,7.4,0,0,1,4.55,1.38,7.16,7.16,0,0,1,2.57,3.88l-2.35.55a5.58,5.58,0,0,0-1.82-2.87,4.85,4.85,0,0,0-3-.9,5.83,5.83,0,0,0-3.48,1,5.26,5.26,0,0,0-2,2.68,10.77,10.77,0,0,0-.57,3.46,11,11,0,0,0,.67,4,5,5,0,0,0,2.09,2.57,5.85,5.85,0,0,0,3.06.85,5.13,5.13,0,0,0,3.4-1.16,5.92,5.92,0,0,0,1.88-3.43l2.39.6A8,8,0,0,1,116.3,86Zm18.59-14.67h-6V87.23h-2.39V71.32h-5.94V69.19h14.3Z"/></svg>