<svg id="Layer_1" data-name="Layer 1" xmlns="http://www.w3.org/2000/svg" xmlns:xlink="http://www.w3.org/1999/xlink" viewBox="0 0 189.83 104"><defs><style>.cls-1{fill:#fff;}.cls-2{fill:url(#New_Gradient_Swatch_3);}.cls-3{fill:url(#New_Gradient_Swatch_3-2);}.cls-4{fill:url(#New_Gradient_Swatch_3-3);}.cls-5{fill:url(#New_Gradient_Swatch_2);}.cls-6{fill:url(#New_Gradient_Swatch_2-2);}.cls-7{fill:url(#New_Gradient_Swatch_2-3);}</style><linearGradient id="New_Gradient_Swatch_3" x1="45.31" y1="3.5" x2="45.31" y2="49.01" gradientUnits="userSpaceOnUse"><stop offset="0" stop-color="#c8c6c7"/><stop offset="1" stop-color="#d3519d"/></linearGradient><linearGradient id="New_Gradient_Swatch_3-2" x1="94.92" y1="3.5" x2="94.92" y2="49.01" xlink:href="#New_Gradient_Swatch_3"/><linearGradient id="New_Gradient_Swatch_3-3" x1="89.19" y1="3.5" x2="89.19" y2="49.01" xlink:href="#New_Gradient_Swatch_3"/><linearGradient id="New_Gradient_Swatch_2" x1="45.31" y1="55.5" x2="45.31" y2="101.01" gradientUnits="userSpaceOnUse"><stop offset="0" stop-color="#b1c6c7"/><stop offset="1" stop-color="#2c80a9"/></linearGradient><linearGradient id="New_Gradient_Swatch_2-2" x1="94.92" y1="55.5" x2="94.92" y2="101.01" xlink:href="#New_Gradient_Swatch_2"/><linearGradient id="New_Gradient_Swatch_2-3" x1="89.19" y1="55.5" x2="89.19" y2="101.01" xlink:href="#New_Gradient_Swatch_2"/></defs><title>equipment_button</title><rect class="cls-1" x="11.9" y="56.45" width="166.03" height="43.5" rx="12" ry="12"/><rect class="cls-1" x="11.9" y="4.46" width="166.03" height="43.5" rx="12" ry="12"/><path class="cls-2" d="M50.73,22.37a5.73,5.73,0,0,0-2.18-2.54,6.24,6.24,0,0,0-7.65.92,7.58,7.58,0,0,0-1.76,5.46,7.67,7.67,0,0,0,1.74,5.4,5.79,5.79,0,0,0,4.45,1.88A6.12,6.12,0,0,0,47.74,33a7.75,7.75,0,0,0-2.36-1L46,30.24A8.84,8.84,0,0,1,49.37,32q2.1-1.92,2.1-5.77A9.17,9.17,0,0,0,50.73,22.37Z"/><path class="cls-3" d="M169.54,2.6H20.29A10.83,10.83,0,0,0,9.49,13.4V38.6a10.83,10.83,0,0,0,10.8,10.8H169.54a10.83,10.83,0,0,0,10.8-10.8V13.4A10.83,10.83,0,0,0,169.54,2.6ZM34.25,35.23H20.79v-18h13v2.13H23.17v5.52h10V27h-10V33.1H34.25Zm19.33,1.4a14.06,14.06,0,0,1-3.88-2.21,8.93,8.93,0,0,1-4.43,1.12,8.55,8.55,0,0,1-4.44-1.18A7.89,7.89,0,0,1,37.76,31a10.58,10.58,0,0,1-1.08-4.82,10.82,10.82,0,0,1,1.08-4.86A7.62,7.62,0,0,1,40.85,18a8.84,8.84,0,0,1,4.47-1.14,8.67,8.67,0,0,1,4.5,1.19,7.76,7.76,0,0,1,3.06,3.32,10.75,10.75,0,0,1,1.05,4.82,11.2,11.2,0,0,1-.68,4,8.39,8.39,0,0,1-2,3.09A14.6,14.6,0,0,0,54.28,35Zm17.79-9a12.34,12.34,0,0,1-.62,4.32,5.27,5.27,0,0,1-2.22,2.6,7.86,7.86,0,0,1-4.21,1,8.66,8.66,0,0,1-4.15-.87,5,5,0,0,1-2.3-2.53,12,12,0,0,1-.69-4.52V17.19h2.39V27.6A10.14,10.14,0,0,0,60,31.06a3.31,3.31,0,0,0,1.5,1.72,5.2,5.2,0,0,0,2.6.6,5,5,0,0,0,3.75-1.19Q69,31,69,27.6V17.19h2.39Zm6.77,7.62H75.75v-18h2.39ZM94.65,26.3q-1.46,1.59-5.29,1.59H84.73v7.33H82.35v-18h6.8a16.45,16.45,0,0,1,2.74.17,5.44,5.44,0,0,1,2.23.84,4.43,4.43,0,0,1,1.45,1.74,5.87,5.87,0,0,1-.92,6.36Zm21.64,8.93H114V20.13l-5.24,15.1H106.6l-5.22-15.36V35.23h-2.3v-18h3.59L106.94,30q.59,1.78.86,2.67.31-1,1-2.89l4.32-12.55h3.21Zm17.36,0H120.19v-18h13v2.13H122.58v5.52h10V27h-10V33.1h11.07Zm17.48,0h-2.45l-9.47-14.17V35.23h-2.29v-18h2.45l9.47,14.16V17.19h2.29Zm17-15.91h-6V35.23h-2.39V19.32H153.8V17.19h14.3Z"/><path class="cls-4" d="M91.57,19.48a10.22,10.22,0,0,0-2.23-.16H84.73v6.45H89.4a5,5,0,0,0,3.29-.86,3.07,3.07,0,0,0,1-2.42,3.26,3.26,0,0,0-.57-1.94A2.68,2.68,0,0,0,91.57,19.48Z"/><path class="cls-5" d="M50.73,74.37a5.73,5.73,0,0,0-2.18-2.54,6.24,6.24,0,0,0-7.65.92,7.58,7.58,0,0,0-1.76,5.46,7.67,7.67,0,0,0,1.74,5.4,5.79,5.79,0,0,0,4.45,1.88A6.12,6.12,0,0,0,47.74,85a7.75,7.75,0,0,0-2.36-1L46,82.24A8.84,8.84,0,0,1,49.37,84q2.1-1.92,2.1-5.77A9.17,9.17,0,0,0,50.73,74.37Z"/><path class="cls-6" d="M169.54,54.6H20.29A10.83,10.83,0,0,0,9.49,65.4V90.6a10.83,10.83,0,0,0,10.8,10.8H169.54a10.83,10.83,0,0,0,10.8-10.8V65.4A10.83,10.83,0,0,0,169.54,54.6ZM34.25,87.23H20.79v-18h13v2.13H23.17v5.52h10V79h-10V85.1H34.25Zm19.33,1.4a14.06,14.06,0,0,1-3.88-2.21,8.93,8.93,0,0,1-4.43,1.12,8.55,8.55,0,0,1-4.44-1.18A7.89,7.89,0,0,1,37.76,83a10.58,10.58,0,0,1-1.08-4.82,10.82,10.82,0,0,1,1.08-4.86A7.62,7.62,0,0,1,40.85,70a8.84,8.84,0,0,1,4.47-1.14,8.67,8.67,0,0,1,4.5,1.19,7.76,7.76,0,0,1,3.06,3.32,10.75,10.75,0,0,1,1.05,4.82,11.2,11.2,0,0,1-.68,4,8.39,8.39,0,0,1-2,3.09A14.6,14.6,0,0,0,54.28,87Zm17.79-9a12.34,12.34,0,0,1-.62,4.32,5.27,5.27,0,0,1-2.22,2.6,7.86,7.86,0,0,1-4.21,1,8.66,8.66,0,0,1-4.15-.87,5,5,0,0,1-2.3-2.53,12,12,0,0,1-.69-4.52V69.19h2.39V79.6A10.14,10.14,0,0,0,60,83.06a3.31,3.31,0,0,0,1.5,1.72,5.2,5.2,0,0,0,2.6.6,5,5,0,0,0,3.75-1.19Q69,83,69,79.6V69.19h2.39Zm6.77,7.62H75.75v-18h2.39ZM94.65,78.3q-1.46,1.59-5.29,1.59H84.73v7.33H82.35v-18h6.8a16.45,16.45,0,0,1,2.74.17,5.44,5.44,0,0,1,2.23.84,4.43,4.43,0,0,1,1.45,1.74,5.87,5.87,0,0,1-.92,6.36Zm21.64,8.93H114V72.13l-5.24,15.1H106.6l-5.22-15.36V87.23h-2.3v-18h3.59L106.94,82q.59,1.78.86,2.67.31-1,1-2.89l4.32-12.55h3.21Zm17.36,0H120.19v-18h13v2.13H122.58v5.52h10V79h-10V85.1h11.07Zm17.48,0h-2.45l-9.47-14.17V87.23h-2.29v-18h2.45l9.47,14.16V69.19h2.29Zm17-15.91h-6V87.23h-2.39V71.32H153.8V69.19h14.3Z"/><path class="cls-7" d="M91.57,71.47a10.22,10.22,0,0,0-2.23-.16H84.73v6.45H89.4a5,5,0,0,0,3.29-.86,3.07,3.07,0,0,0,1-2.42,3.26,3.26,0,0,0-.57-1.94A2.68,2.68,0,0,0,91.57,71.47Z"/></svg>