<svg id="Layer_1" data-name="Layer 1" xmlns="http://www.w3.org/2000/svg" xmlns:xlink="http://www.w3.org/1999/xlink" viewBox="0 0 50.94 101.88"><defs><style>.cls-1{fill:url(#New_Gradient_Swatch_3);}.cls-2{fill:url(#New_Gradient_Swatch_2);}</style><linearGradient id="New_Gradient_Swatch_3" x1="25.47" y1="0.71" x2="25.47" y2="50.23" gradientUnits="userSpaceOnUse"><stop offset="0" stop-color="#c8c6c7"/><stop offset="1" stop-color="#d94da8"/></linearGradient><linearGradient id="New_Gradient_Swatch_2" x1="25.47" y1="51.65" x2="25.47" y2="101.17" gradientUnits="userSpaceOnUse"><stop offset="0" stop-color="#b1c6c7"/><stop offset="1" stop-color="#2b80a9"/></linearGradient></defs><title>googleplay_logo</title><path class="cls-1" d="M25.47.71A24.76,24.76,0,1,0,50.23,25.47,24.76,24.76,0,0,0,25.47.71ZM16.79,10,35.52,20.29l-4.6,4.61L15.75,9.72A2.07,2.07,0,0,1,16.79,10ZM14.4,39.27V11.42a1.69,1.69,0,0,1,.67-1.52L30.49,25.32,15,40.78A1.71,1.71,0,0,1,14.4,39.27Zm2.39,1.42A2.06,2.06,0,0,1,15.7,41L30.92,25.75l4.64,4.64Zm25.52-14-6.2,3.42-4.76-4.76,4.73-4.73L42.3,24C43.62,24.74,43.62,25.94,42.3,26.66Z"/><path class="cls-2" d="M25.47,51.65A24.76,24.76,0,1,0,50.23,76.41,24.76,24.76,0,0,0,25.47,51.65Zm-8.68,9.3L35.52,71.23l-4.6,4.61L15.75,60.66A2.07,2.07,0,0,1,16.79,60.94ZM14.4,90.21V62.36a1.69,1.69,0,0,1,.67-1.52L30.49,76.26,15,91.72A1.71,1.71,0,0,1,14.4,90.21Zm2.39,1.42a2.06,2.06,0,0,1-1.09.29L30.92,76.69l4.64,4.64Zm25.52-14L36.11,81l-4.76-4.76,4.73-4.73L42.3,75C43.62,75.68,43.62,76.88,42.3,77.6Z"/></svg>