<svg id="Layer_1" data-name="Layer 1" xmlns="http://www.w3.org/2000/svg" xmlns:xlink="http://www.w3.org/1999/xlink" viewBox="0 0 50.94 101.88"><defs><style>.cls-1{fill:url(#New_Gradient_Swatch_3);}.cls-2{fill:url(#New_Gradient_Swatch_2);}</style><linearGradient id="New_Gradient_Swatch_3" x1="25.47" y1="0.71" x2="25.47" y2="50.23" gradientUnits="userSpaceOnUse"><stop offset="0" stop-color="#c8c6c7"/><stop offset="1" stop-color="#d94da8"/></linearGradient><linearGradient id="New_Gradient_Swatch_2" x1="25.47" y1="51.65" x2="25.47" y2="101.17" gradientUnits="userSpaceOnUse"><stop offset="0" stop-color="#b1c6c7"/><stop offset="1" stop-color="#2b80a9"/></linearGradient></defs><title>itunes_logo</title><path class="cls-1" d="M25.47.71A24.76,24.76,0,1,0,50.23,25.47,24.76,24.76,0,0,0,25.47.71ZM25,13.19A7.42,7.42,0,0,1,29.64,8a6.23,6.23,0,0,1,1.84-.45c.11,0,.11,0,.12.1s0,.36,0,.54a6.45,6.45,0,0,1-1.07,3.55A8.43,8.43,0,0,1,28.38,14a5.52,5.52,0,0,1-2.1,1,4.92,4.92,0,0,1-1.26.09c-.06,0-.08,0-.09-.08A5.39,5.39,0,0,1,25,13.19ZM38.31,31a18,18,0,0,1-2.73,5.15,17,17,0,0,1-1.36,1.65A5.84,5.84,0,0,1,32.68,39a3.75,3.75,0,0,1-1.78.42,5.8,5.8,0,0,1-1.48-.26c-.52-.15-1-.37-1.51-.55a6.92,6.92,0,0,0-2.48-.44,7.39,7.39,0,0,0-2.15.39c-.44.15-.87.34-1.31.49a7.09,7.09,0,0,1-1.67.39A3.27,3.27,0,0,1,18.48,39a6.67,6.67,0,0,1-1.86-1.52,20.09,20.09,0,0,1-4.55-8.39,18.07,18.07,0,0,1-.5-2.62,15,15,0,0,1-.07-2.7,10.34,10.34,0,0,1,1.09-4.1,8.37,8.37,0,0,1,2.49-3,7.88,7.88,0,0,1,3.5-1.47,8.88,8.88,0,0,1,1.16-.09,6.22,6.22,0,0,1,1.39.2,17.79,17.79,0,0,1,2,.64c.48.18,1,.33,1.47.48a2,2,0,0,0,1.16,0c.83-.25,1.63-.56,2.45-.84a9.84,9.84,0,0,1,2.4-.52,6.66,6.66,0,0,1,1.33.05,9.71,9.71,0,0,1,1.93.43,7.16,7.16,0,0,1,3.6,2.64c0,.06,0,.08,0,.1a8.58,8.58,0,0,0-1.5,1.15A6.28,6.28,0,0,0,34,23.14a7.33,7.33,0,0,0,.47,4,6.8,6.8,0,0,0,1.66,2.31,7.3,7.3,0,0,0,2.14,1.41C38.34,30.89,38.33,30.92,38.31,31Z"/><path class="cls-2" d="M25.47,51.65A24.76,24.76,0,1,0,50.23,76.41,24.76,24.76,0,0,0,25.47,51.65ZM25,64.13a7.42,7.42,0,0,1,4.59-5.23,6.23,6.23,0,0,1,1.84-.45c.11,0,.11,0,.12.1s0,.36,0,.54a6.45,6.45,0,0,1-1.07,3.55,8.43,8.43,0,0,1-2.17,2.3,5.52,5.52,0,0,1-2.1,1A4.92,4.92,0,0,1,25,66c-.06,0-.08,0-.09-.08A5.39,5.39,0,0,1,25,64.13ZM38.31,81.92a18,18,0,0,1-2.73,5.15,17,17,0,0,1-1.36,1.65,5.84,5.84,0,0,1-1.54,1.18,3.75,3.75,0,0,1-1.78.42,5.8,5.8,0,0,1-1.48-.26c-.52-.15-1-.37-1.51-.55a6.92,6.92,0,0,0-2.48-.44,7.39,7.39,0,0,0-2.15.39c-.44.15-.87.34-1.31.49a7.09,7.09,0,0,1-1.67.39A3.27,3.27,0,0,1,18.48,90a6.67,6.67,0,0,1-1.86-1.52A20.09,20.09,0,0,1,12.07,80a18.07,18.07,0,0,1-.5-2.62,15,15,0,0,1-.07-2.7,10.34,10.34,0,0,1,1.09-4.1,8.37,8.37,0,0,1,2.49-3,7.88,7.88,0,0,1,3.5-1.47,8.88,8.88,0,0,1,1.16-.09,6.22,6.22,0,0,1,1.39.2,17.79,17.79,0,0,1,2,.64c.48.18,1,.33,1.47.48a2,2,0,0,0,1.16,0c.83-.25,1.63-.56,2.45-.84a9.84,9.84,0,0,1,2.4-.52,6.66,6.66,0,0,1,1.33.05,9.71,9.71,0,0,1,1.93.43,7.16,7.16,0,0,1,3.6,2.64c0,.06,0,.08,0,.1a8.58,8.58,0,0,0-1.5,1.15A6.28,6.28,0,0,0,34,74.08a7.33,7.33,0,0,0,.47,4,6.8,6.8,0,0,0,1.66,2.31,7.3,7.3,0,0,0,2.14,1.41C38.34,81.83,38.33,81.86,38.31,81.92Z"/></svg>