<svg id="Layer_1" data-name="Layer 1" xmlns="http://www.w3.org/2000/svg" xmlns:xlink="http://www.w3.org/1999/xlink" viewBox="0 0 167.33 156"><defs><style>.cls-1{fill:#fff;}.cls-2{fill:url(#New_Gradient_Swatch_3);}.cls-3{fill:url(#New_Gradient_Swatch_3-2);}.cls-4{fill:url(#New_Gradient_Swatch_3-3);}.cls-5{fill:url(#New_Gradient_Swatch_3-4);}.cls-6{fill:#9b8579;}.cls-7{fill:url(#New_Gradient_Swatch_2);}.cls-8{fill:url(#New_Gradient_Swatch_2-2);}.cls-9{fill:url(#New_Gradient_Swatch_2-3);}.cls-10{fill:url(#New_Gradient_Swatch_2-4);}</style><linearGradient id="New_Gradient_Swatch_3" x1="75.42" y1="2.75" x2="75.42" y2="49.21" gradientUnits="userSpaceOnUse"><stop offset="0" stop-color="#c8c6c7"/><stop offset="1" stop-color="#d3519d"/></linearGradient><linearGradient id="New_Gradient_Swatch_3-2" x1="109.96" y1="2.75" x2="109.96" y2="49.21" xlink:href="#New_Gradient_Swatch_3"/><linearGradient id="New_Gradient_Swatch_3-3" x1="83.67" y1="2.75" x2="83.67" y2="49.21" xlink:href="#New_Gradient_Swatch_3"/><linearGradient id="New_Gradient_Swatch_3-4" x1="39.36" y1="2.75" x2="39.36" y2="49.21" xlink:href="#New_Gradient_Swatch_3"/><linearGradient id="New_Gradient_Swatch_2" x1="75.42" y1="106.75" x2="75.42" y2="153.21" gradientUnits="userSpaceOnUse"><stop offset="0" stop-color="#b1c6c7"/><stop offset="1" stop-color="#2c80a9"/></linearGradient><linearGradient id="New_Gradient_Swatch_2-2" x1="109.96" y1="106.75" x2="109.96" y2="153.21" xlink:href="#New_Gradient_Swatch_2"/><linearGradient id="New_Gradient_Swatch_2-3" x1="83.67" y1="106.75" x2="83.67" y2="153.21" xlink:href="#New_Gradient_Swatch_2"/><linearGradient id="New_Gradient_Swatch_2-4" x1="39.36" y1="106.75" x2="39.36" y2="153.21" xlink:href="#New_Gradient_Swatch_2"/></defs><title>photos_button</title><rect class="cls-1" x="11.02" y="56.46" width="145.3" height="43.5" rx="12" ry="12"/><rect class="cls-1" x="11.02" y="4.61" width="145.3" height="43.5" rx="12" ry="12"/><rect class="cls-1" x="11.02" y="108.47" width="145.3" height="43.5" rx="12" ry="12"/><path class="cls-2" d="M78.66,19.83a5.91,5.91,0,0,0-3.22-.9,6.1,6.1,0,0,0-4.36,1.74q-1.83,1.74-1.83,5.81A7.23,7.23,0,0,0,71,31.61a6.12,6.12,0,0,0,8.83,0,7.66,7.66,0,0,0,1.74-5.38,9.24,9.24,0,0,0-.74-3.85A5.72,5.72,0,0,0,78.66,19.83Z"/><path class="cls-3" d="M113.2,19.83a5.91,5.91,0,0,0-3.22-.9,6.1,6.1,0,0,0-4.36,1.74q-1.83,1.74-1.83,5.81a7.23,7.23,0,0,0,1.75,5.14,6.12,6.12,0,0,0,8.83,0,7.66,7.66,0,0,0,1.74-5.38,9.24,9.24,0,0,0-.74-3.85A5.72,5.72,0,0,0,113.2,19.83Z"/><path class="cls-4" d="M148.17,2.6h-129A10.83,10.83,0,0,0,8.37,13.4V38.6a10.83,10.83,0,0,0,10.8,10.8h129A10.83,10.83,0,0,0,159,38.6V13.4A10.83,10.83,0,0,0,148.17,2.6ZM44.82,26.3q-1.46,1.59-5.29,1.59H34.9v7.33H32.51v-18h6.8a16.45,16.45,0,0,1,2.74.17,5.44,5.44,0,0,1,2.23.84,4.43,4.43,0,0,1,1.45,1.74,5.87,5.87,0,0,1-.92,6.36Zm18.73,8.93H61.16v-8.5H51.78v8.5H49.39v-18h2.39v7.41h9.38V17.19h2.39Zm19.39-4.09a7.56,7.56,0,0,1-3.14,3.28,9,9,0,0,1-4.38,1.11,8.53,8.53,0,0,1-4.55-1.23,7.91,7.91,0,0,1-3-3.36,10.18,10.18,0,0,1-1-4.5,9.8,9.8,0,0,1,2.41-7,8.2,8.2,0,0,1,6.23-2.54,8.64,8.64,0,0,1,4.5,1.19A7.8,7.8,0,0,1,83,21.39,10.81,10.81,0,0,1,84,26.23,10.63,10.63,0,0,1,82.94,31.14Zm17.13-11.82h-6V35.23H91.71V19.32H85.77V17.19h14.3Zm17.41,11.82a7.56,7.56,0,0,1-3.14,3.28A9,9,0,0,1,110,35.53a8.53,8.53,0,0,1-4.55-1.23,7.91,7.91,0,0,1-3-3.36,10.18,10.18,0,0,1-1-4.5,9.8,9.8,0,0,1,2.41-7A8.2,8.2,0,0,1,110,16.87a8.64,8.64,0,0,1,4.5,1.19,7.8,7.8,0,0,1,3.06,3.33,10.81,10.81,0,0,1,1.05,4.84A10.63,10.63,0,0,1,117.47,31.14Zm16.91,1.7a5.43,5.43,0,0,1-2.37,2,8.26,8.26,0,0,1-3.48.71,10.38,10.38,0,0,1-4.1-.71,5.74,5.74,0,0,1-2.6-2.15,6.08,6.08,0,0,1-1-3.24l2.25-.2a5,5,0,0,0,.74,2.22,4.06,4.06,0,0,0,1.81,1.4,6.87,6.87,0,0,0,2.77.54,6.63,6.63,0,0,0,2.41-.41,3.35,3.35,0,0,0,1.56-1.11,2.58,2.58,0,0,0,.51-1.54,2.35,2.35,0,0,0-.49-1.48,3.65,3.65,0,0,0-1.62-1.06,31.92,31.92,0,0,0-3.21-.88,16.39,16.39,0,0,1-3.48-1.13,4.88,4.88,0,0,1-1.93-1.68,4.11,4.11,0,0,1-.63-2.25,4.59,4.59,0,0,1,.78-2.55,4.8,4.8,0,0,1,2.26-1.8,8.59,8.59,0,0,1,3.31-.62,9,9,0,0,1,3.54.65,5.1,5.1,0,0,1,2.36,1.9,5.47,5.47,0,0,1,.89,2.84l-2.29.17a3.7,3.7,0,0,0-1.25-2.58A4.86,4.86,0,0,0,128,19a5,5,0,0,0-3.16.79,2.38,2.38,0,0,0-1,1.91,2.05,2.05,0,0,0,.7,1.6,9.5,9.5,0,0,0,3.6,1.29,23.86,23.86,0,0,1,4,1.15,5.47,5.47,0,0,1,2.33,1.84,4.49,4.49,0,0,1,.75,2.57A4.91,4.91,0,0,1,134.38,32.84Z"/><path class="cls-5" d="M41.74,19.48a10.22,10.22,0,0,0-2.23-.16H34.9v6.45h4.66a5,5,0,0,0,3.29-.86,3.07,3.07,0,0,0,1-2.42,3.26,3.26,0,0,0-.57-1.94A2.68,2.68,0,0,0,41.74,19.48Z"/><path class="cls-6" d="M78.66,71.83a5.91,5.91,0,0,0-3.22-.9,6.1,6.1,0,0,0-4.36,1.74q-1.83,1.74-1.83,5.81A7.23,7.23,0,0,0,71,83.61a6.12,6.12,0,0,0,8.83,0,7.66,7.66,0,0,0,1.74-5.38,9.24,9.24,0,0,0-.74-3.85A5.72,5.72,0,0,0,78.66,71.83Z"/><path class="cls-6" d="M113.2,71.83a5.91,5.91,0,0,0-3.22-.9,6.1,6.1,0,0,0-4.36,1.74q-1.83,1.74-1.83,5.81a7.23,7.23,0,0,0,1.75,5.14,6.12,6.12,0,0,0,8.83,0,7.66,7.66,0,0,0,1.74-5.38,9.24,9.24,0,0,0-.74-3.85A5.72,5.72,0,0,0,113.2,71.83Z"/><path class="cls-6" d="M148.17,54.6h-129A10.83,10.83,0,0,0,8.37,65.4V90.6a10.83,10.83,0,0,0,10.8,10.8h129A10.83,10.83,0,0,0,159,90.6V65.4A10.83,10.83,0,0,0,148.17,54.6ZM44.82,78.3q-1.46,1.59-5.29,1.59H34.9v7.33H32.51v-18h6.8a16.45,16.45,0,0,1,2.74.17,5.44,5.44,0,0,1,2.23.84,4.43,4.43,0,0,1,1.45,1.74,5.87,5.87,0,0,1-.92,6.36Zm18.73,8.93H61.16v-8.5H51.78v8.5H49.39v-18h2.39v7.41h9.38V69.19h2.39Zm19.39-4.09a7.56,7.56,0,0,1-3.14,3.28,9,9,0,0,1-4.38,1.11,8.53,8.53,0,0,1-4.55-1.23,7.91,7.91,0,0,1-3-3.36,10.18,10.18,0,0,1-1-4.5,9.8,9.8,0,0,1,2.41-7,8.2,8.2,0,0,1,6.23-2.54,8.64,8.64,0,0,1,4.5,1.19A7.8,7.8,0,0,1,83,73.39,10.81,10.81,0,0,1,84,78.23,10.63,10.63,0,0,1,82.94,83.14Zm17.13-11.82h-6V87.23H91.71V71.32H85.77V69.19h14.3Zm17.41,11.82a7.56,7.56,0,0,1-3.14,3.28A9,9,0,0,1,110,87.53a8.53,8.53,0,0,1-4.55-1.23,7.91,7.91,0,0,1-3-3.36,10.18,10.18,0,0,1-1-4.5,9.8,9.8,0,0,1,2.41-7A8.2,8.2,0,0,1,110,68.87a8.64,8.64,0,0,1,4.5,1.19,7.8,7.8,0,0,1,3.06,3.33,10.81,10.81,0,0,1,1.05,4.84A10.63,10.63,0,0,1,117.47,83.14Zm16.91,1.7a5.43,5.43,0,0,1-2.37,2,8.26,8.26,0,0,1-3.48.71,10.38,10.38,0,0,1-4.1-.71,5.74,5.74,0,0,1-2.6-2.15,6.08,6.08,0,0,1-1-3.24l2.25-.2a5,5,0,0,0,.74,2.22,4.06,4.06,0,0,0,1.81,1.4,6.87,6.87,0,0,0,2.77.54,6.63,6.63,0,0,0,2.41-.41,3.35,3.35,0,0,0,1.56-1.11,2.58,2.58,0,0,0,.51-1.54,2.35,2.35,0,0,0-.49-1.48,3.65,3.65,0,0,0-1.62-1.06,31.92,31.92,0,0,0-3.21-.88,16.39,16.39,0,0,1-3.48-1.13,4.88,4.88,0,0,1-1.93-1.68,4.11,4.11,0,0,1-.63-2.25,4.59,4.59,0,0,1,.78-2.55,4.8,4.8,0,0,1,2.26-1.8,8.59,8.59,0,0,1,3.31-.62,9,9,0,0,1,3.54.65,5.1,5.1,0,0,1,2.36,1.9,5.47,5.47,0,0,1,.89,2.84l-2.29.17a3.7,3.7,0,0,0-1.25-2.58A4.86,4.86,0,0,0,128,71a5,5,0,0,0-3.16.79,2.38,2.38,0,0,0-1,1.91,2.05,2.05,0,0,0,.7,1.6,9.5,9.5,0,0,0,3.6,1.29,23.86,23.86,0,0,1,4,1.15,5.47,5.47,0,0,1,2.33,1.84,4.49,4.49,0,0,1,.75,2.57A4.91,4.91,0,0,1,134.38,84.84Z"/><path class="cls-6" d="M41.74,71.48a10.22,10.22,0,0,0-2.23-.16H34.9v6.45h4.66a5,5,0,0,0,3.29-.86,3.07,3.07,0,0,0,1-2.42,3.26,3.26,0,0,0-.57-1.94A2.68,2.68,0,0,0,41.74,71.48Z"/><path class="cls-7" d="M78.66,123.83a5.91,5.91,0,0,0-3.22-.9,6.1,6.1,0,0,0-4.36,1.74q-1.83,1.74-1.83,5.81A7.23,7.23,0,0,0,71,135.61a6.12,6.12,0,0,0,8.83,0,7.66,7.66,0,0,0,1.74-5.38,9.24,9.24,0,0,0-.74-3.85A5.72,5.72,0,0,0,78.66,123.83Z"/><path class="cls-8" d="M113.2,123.83a5.91,5.91,0,0,0-3.22-.9,6.1,6.1,0,0,0-4.36,1.74q-1.83,1.74-1.83,5.81a7.23,7.23,0,0,0,1.75,5.14,6.12,6.12,0,0,0,8.83,0,7.66,7.66,0,0,0,1.74-5.38,9.24,9.24,0,0,0-.74-3.85A5.72,5.72,0,0,0,113.2,123.83Z"/><path class="cls-9" d="M148.17,106.6h-129a10.83,10.83,0,0,0-10.8,10.8v25.2a10.83,10.83,0,0,0,10.8,10.8h129A10.83,10.83,0,0,0,159,142.6V117.4A10.83,10.83,0,0,0,148.17,106.6ZM44.82,130.3q-1.46,1.59-5.29,1.59H34.9v7.33H32.51v-18h6.8a16.45,16.45,0,0,1,2.74.17,5.44,5.44,0,0,1,2.23.84,4.43,4.43,0,0,1,1.45,1.74,5.87,5.87,0,0,1-.92,6.36Zm18.73,8.93H61.16v-8.5H51.78v8.5H49.39v-18h2.39v7.41h9.38v-7.41h2.39Zm19.39-4.09a7.56,7.56,0,0,1-3.14,3.28,9,9,0,0,1-4.38,1.11,8.53,8.53,0,0,1-4.55-1.23,7.91,7.91,0,0,1-3-3.36,10.18,10.18,0,0,1-1-4.5,9.8,9.8,0,0,1,2.41-7,8.2,8.2,0,0,1,6.23-2.54,8.64,8.64,0,0,1,4.5,1.19A7.8,7.8,0,0,1,83,125.39,10.81,10.81,0,0,1,84,130.23,10.63,10.63,0,0,1,82.94,135.14Zm17.13-11.82h-6v15.91H91.71V123.32H85.77v-2.13h14.3Zm17.41,11.82a7.56,7.56,0,0,1-3.14,3.28,9,9,0,0,1-4.38,1.11,8.53,8.53,0,0,1-4.55-1.23,7.91,7.91,0,0,1-3-3.36,10.18,10.18,0,0,1-1-4.5,9.8,9.8,0,0,1,2.41-7,8.2,8.2,0,0,1,6.23-2.54,8.64,8.64,0,0,1,4.5,1.19,7.8,7.8,0,0,1,3.06,3.33,10.81,10.81,0,0,1,1.05,4.84A10.63,10.63,0,0,1,117.47,135.14Zm16.91,1.7a5.43,5.43,0,0,1-2.37,2,8.26,8.26,0,0,1-3.48.71,10.38,10.38,0,0,1-4.1-.71,5.74,5.74,0,0,1-2.6-2.15,6.08,6.08,0,0,1-1-3.24l2.25-.2a5,5,0,0,0,.74,2.22,4.06,4.06,0,0,0,1.81,1.4,6.87,6.87,0,0,0,2.77.54,6.63,6.63,0,0,0,2.41-.41,3.35,3.35,0,0,0,1.56-1.11,2.58,2.58,0,0,0,.51-1.54,2.35,2.35,0,0,0-.49-1.48,3.65,3.65,0,0,0-1.62-1.06,31.92,31.92,0,0,0-3.21-.88,16.39,16.39,0,0,1-3.48-1.13,4.88,4.88,0,0,1-1.93-1.68,4.11,4.11,0,0,1-.63-2.25,4.59,4.59,0,0,1,.78-2.55,4.8,4.8,0,0,1,2.26-1.8,8.59,8.59,0,0,1,3.31-.62,9,9,0,0,1,3.54.65,5.1,5.1,0,0,1,2.36,1.9,5.47,5.47,0,0,1,.89,2.84l-2.29.17a3.7,3.7,0,0,0-1.25-2.58A4.86,4.86,0,0,0,128,123a5,5,0,0,0-3.16.79,2.38,2.38,0,0,0-1,1.91,2.05,2.05,0,0,0,.7,1.6,9.5,9.5,0,0,0,3.6,1.29,23.86,23.86,0,0,1,4,1.15,5.47,5.47,0,0,1,2.33,1.84,4.49,4.49,0,0,1,.75,2.57A4.91,4.91,0,0,1,134.38,136.84Z"/><path class="cls-10" d="M41.74,123.48a10.22,10.22,0,0,0-2.23-.16H34.9v6.45h4.66a5,5,0,0,0,3.29-.86,3.07,3.07,0,0,0,1-2.42,3.26,3.26,0,0,0-.57-1.94A2.68,2.68,0,0,0,41.74,123.48Z"/></svg>