<svg id="Layer_1" data-name="Layer 1" xmlns="http://www.w3.org/2000/svg" xmlns:xlink="http://www.w3.org/1999/xlink" viewBox="0 0 50.94 101.88"><defs><style>.cls-1{fill:url(#New_Gradient_Swatch_3);}.cls-2{fill:url(#New_Gradient_Swatch_3-2);}.cls-3{fill:url(#New_Gradient_Swatch_2);}.cls-4{fill:url(#New_Gradient_Swatch_2-2);}</style><linearGradient id="New_Gradient_Swatch_3" x1="26.09" y1="0.77" x2="26.09" y2="49.59" gradientUnits="userSpaceOnUse"><stop offset="0" stop-color="#c8c6c7"/><stop offset="1" stop-color="#d94da8"/></linearGradient><linearGradient id="New_Gradient_Swatch_3-2" x1="25.47" y1="0.77" x2="25.47" y2="49.59" xlink:href="#New_Gradient_Swatch_3"/><linearGradient id="New_Gradient_Swatch_2" x1="26.09" y1="51.71" x2="26.09" y2="100.53" gradientUnits="userSpaceOnUse"><stop offset="0" stop-color="#b1c6c7"/><stop offset="1" stop-color="#2b80a9"/></linearGradient><linearGradient id="New_Gradient_Swatch_2-2" x1="25.47" y1="51.71" x2="25.47" y2="100.53" xlink:href="#New_Gradient_Swatch_2"/></defs><title>photo_button</title><circle class="cls-1" cx="26.09" cy="26.8" r="4.51"/><path class="cls-2" d="M25.47.71A24.76,24.76,0,1,0,50.23,25.47,24.76,24.76,0,0,0,25.47.71ZM39.62,33.43c0,1.59-1.06,3.18-2.65,3.18H14.68A2.84,2.84,0,0,1,12,34V20.16a2.51,2.51,0,0,1,2.65-2.65h4.78S20,13.8,21.58,13.8h9c2.12,0,2.12,3.71,2.12,3.71H37.5a1.94,1.94,0,0,1,2.12,2.12Z"/><circle class="cls-3" cx="26.09" cy="77.74" r="4.51"/><path class="cls-4" d="M25.47,51.65A24.76,24.76,0,1,0,50.23,76.41,24.76,24.76,0,0,0,25.47,51.65ZM39.62,84.37c0,1.59-1.06,3.18-2.65,3.18H14.68A2.84,2.84,0,0,1,12,84.9V71.1a2.51,2.51,0,0,1,2.65-2.65h4.78s.53-3.71,2.12-3.71h9c2.12,0,2.12,3.71,2.12,3.71H37.5a1.94,1.94,0,0,1,2.12,2.12Z"/></svg>