<svg id="Layer_1" data-name="Layer 1" xmlns="http://www.w3.org/2000/svg" xmlns:xlink="http://www.w3.org/1999/xlink" viewBox="0 0 198.33 104"><defs><style>.cls-1{fill:#fff;}.cls-2{fill:url(#New_Gradient_Swatch_3);}.cls-3{fill:url(#New_Gradient_Swatch_3-2);}.cls-4{fill:url(#New_Gradient_Swatch_3-3);}.cls-5{fill:url(#New_Gradient_Swatch_3-4);}.cls-6{fill:url(#New_Gradient_Swatch_2);}.cls-7{fill:url(#New_Gradient_Swatch_2-2);}.cls-8{fill:url(#New_Gradient_Swatch_2-3);}.cls-9{fill:url(#New_Gradient_Swatch_2-4);}</style><linearGradient id="New_Gradient_Swatch_3" x1="117.99" y1="3.5" x2="117.99" y2="49.01" gradientUnits="userSpaceOnUse"><stop offset="0" stop-color="#c8c6c7"/><stop offset="1" stop-color="#d3519d"/></linearGradient><linearGradient id="New_Gradient_Swatch_3-2" x1="80.88" y1="3.5" x2="80.88" y2="49.01" xlink:href="#New_Gradient_Swatch_3"/><linearGradient id="New_Gradient_Swatch_3-3" x1="28.37" y1="3.5" x2="28.37" y2="49.01" xlink:href="#New_Gradient_Swatch_3"/><linearGradient id="New_Gradient_Swatch_3-4" x1="99.17" y1="3.5" x2="99.17" y2="49.01" xlink:href="#New_Gradient_Swatch_3"/><linearGradient id="New_Gradient_Swatch_2" x1="117.99" y1="55.5" x2="117.99" y2="101.01" gradientUnits="userSpaceOnUse"><stop offset="0" stop-color="#b1c6c7"/><stop offset="1" stop-color="#2c80a9"/></linearGradient><linearGradient id="New_Gradient_Swatch_2-2" x1="80.88" y1="55.5" x2="80.88" y2="101.01" xlink:href="#New_Gradient_Swatch_2"/><linearGradient id="New_Gradient_Swatch_2-3" x1="28.37" y1="55.5" x2="28.37" y2="101.01" xlink:href="#New_Gradient_Swatch_2"/><linearGradient id="New_Gradient_Swatch_2-4" x1="99.17" y1="55.5" x2="99.17" y2="101.01" xlink:href="#New_Gradient_Swatch_2"/></defs><title>resources_button</title><rect class="cls-1" x="15.83" y="4.45" width="168.36" height="43.5" rx="12" ry="12"/><rect class="cls-1" x="15.83" y="56.45" width="168.36" height="43.5" rx="12" ry="12"/><path class="cls-2" d="M122.29,23.73a2.93,2.93,0,0,0,.48-1.62,2.69,2.69,0,0,0-.93-2.1,4.35,4.35,0,0,0-2.93-.82H113.2v6h5.13a7.69,7.69,0,0,0,2.56-.34A2.72,2.72,0,0,0,122.29,23.73Z"/><path class="cls-3" d="M84.12,19.83a5.91,5.91,0,0,0-3.22-.9,6.1,6.1,0,0,0-4.36,1.74q-1.83,1.74-1.83,5.81a7.23,7.23,0,0,0,1.75,5.14,6.12,6.12,0,0,0,8.83,0A7.66,7.66,0,0,0,87,26.22a9.24,9.24,0,0,0-.74-3.85A5.72,5.72,0,0,0,84.12,19.83Z"/><path class="cls-4" d="M32.68,23.73a2.93,2.93,0,0,0,.48-1.62,2.69,2.69,0,0,0-.93-2.1,4.35,4.35,0,0,0-2.93-.82H23.58v6h5.13a7.69,7.69,0,0,0,2.56-.34A2.72,2.72,0,0,0,32.68,23.73Z"/><path class="cls-5" d="M177.62,2.6H20.72A10.83,10.83,0,0,0,9.92,13.4V38.6a10.83,10.83,0,0,0,10.8,10.8h156.9a10.83,10.83,0,0,0,10.8-10.8V13.4A10.83,10.83,0,0,0,177.62,2.6ZM34.09,35.23l-2.39-3.75Q30.66,29.85,30,29a5.43,5.43,0,0,0-1.21-1.21,3.6,3.6,0,0,0-1.09-.48,7.2,7.2,0,0,0-1.33-.09H23.58v8H21.2v-18h8a10.65,10.65,0,0,1,3.67.49,4,4,0,0,1,2,1.72,5.12,5.12,0,0,1,.75,2.72,4.54,4.54,0,0,1-1.24,3.24A6.29,6.29,0,0,1,30.54,27a6.2,6.2,0,0,1,1.44.9,12.42,12.42,0,0,1,2,2.4l3.14,4.91Zm18.78,0H39.41v-18h13v2.13H41.8v5.52h10V27h-10V33.1H52.87Zm16-2.38a5.43,5.43,0,0,1-2.37,2,8.26,8.26,0,0,1-3.48.71,10.38,10.38,0,0,1-4.1-.71,5.74,5.74,0,0,1-2.6-2.15,6.08,6.08,0,0,1-1-3.24l2.25-.2a5,5,0,0,0,.74,2.22,4.06,4.06,0,0,0,1.81,1.4,6.87,6.87,0,0,0,2.77.54A6.63,6.63,0,0,0,65.35,33a3.35,3.35,0,0,0,1.56-1.11,2.58,2.58,0,0,0,.51-1.54,2.35,2.35,0,0,0-.49-1.48,3.65,3.65,0,0,0-1.62-1.06,31.92,31.92,0,0,0-3.21-.88,16.39,16.39,0,0,1-3.48-1.13,4.88,4.88,0,0,1-1.93-1.68A4.11,4.11,0,0,1,56,21.85a4.59,4.59,0,0,1,.78-2.55,4.8,4.8,0,0,1,2.26-1.8,8.59,8.59,0,0,1,3.31-.62,9,9,0,0,1,3.54.65,5.1,5.1,0,0,1,2.36,1.9,5.47,5.47,0,0,1,.89,2.84l-2.29.17a3.7,3.7,0,0,0-1.25-2.58A4.86,4.86,0,0,0,62.49,19a5,5,0,0,0-3.16.79,2.38,2.38,0,0,0-1,1.91,2.05,2.05,0,0,0,.7,1.6,9.5,9.5,0,0,0,3.6,1.29,23.86,23.86,0,0,1,4,1.15A5.47,5.47,0,0,1,69,27.57a4.49,4.49,0,0,1,.75,2.57A4.91,4.91,0,0,1,68.89,32.84Zm19.5-1.7a7.56,7.56,0,0,1-3.14,3.28,9,9,0,0,1-4.38,1.11,8.53,8.53,0,0,1-4.55-1.23,7.91,7.91,0,0,1-3-3.36,10.18,10.18,0,0,1-1-4.5,9.8,9.8,0,0,1,2.41-7,8.2,8.2,0,0,1,6.23-2.54,8.64,8.64,0,0,1,4.5,1.19,7.8,7.8,0,0,1,3.06,3.33,10.81,10.81,0,0,1,1.05,4.84A10.63,10.63,0,0,1,88.39,31.14Zm18.41-3.53a12.34,12.34,0,0,1-.62,4.32,5.27,5.27,0,0,1-2.22,2.6,7.86,7.86,0,0,1-4.21,1,8.66,8.66,0,0,1-4.15-.87,5,5,0,0,1-2.3-2.53,12,12,0,0,1-.69-4.52V17.19H95V27.6a10.14,10.14,0,0,0,.44,3.46,3.31,3.31,0,0,0,1.5,1.72,5.2,5.2,0,0,0,2.6.6,5,5,0,0,0,3.75-1.19q1.12-1.19,1.12-4.59V17.19h2.39Zm16.91,7.62-2.39-3.75q-1-1.62-1.72-2.49a5.43,5.43,0,0,0-1.21-1.21,3.6,3.6,0,0,0-1.09-.48,7.2,7.2,0,0,0-1.33-.09H113.2v8h-2.39v-18h8a10.65,10.65,0,0,1,3.67.49,4,4,0,0,1,2,1.72,5.12,5.12,0,0,1,.75,2.72A4.54,4.54,0,0,1,124,25.34,6.29,6.29,0,0,1,120.15,27a6.2,6.2,0,0,1,1.44.9,12.42,12.42,0,0,1,2,2.4l3.14,4.91ZM141.53,34a7.44,7.44,0,0,1-4.77,1.54A8.57,8.57,0,0,1,132,34.35a7.41,7.41,0,0,1-2.78-3.44,12.27,12.27,0,0,1-1-4.84,10.63,10.63,0,0,1,1.08-4.92A7.38,7.38,0,0,1,132.43,18a9,9,0,0,1,4.37-1.09,7.4,7.4,0,0,1,4.55,1.38,7.16,7.16,0,0,1,2.57,3.88l-2.35.55a5.58,5.58,0,0,0-1.82-2.87,4.85,4.85,0,0,0-3-.9,5.83,5.83,0,0,0-3.48,1,5.26,5.26,0,0,0-2,2.68,10.77,10.77,0,0,0-.57,3.46,11,11,0,0,0,.67,4,5,5,0,0,0,2.09,2.57,5.85,5.85,0,0,0,3.06.85,5.13,5.13,0,0,0,3.4-1.16,5.92,5.92,0,0,0,1.88-3.43l2.39.6A8,8,0,0,1,141.53,34Zm19.15,1.24H147.22v-18h13v2.13H149.61v5.52h10V27h-10V33.1h11.07Zm16-2.38a5.43,5.43,0,0,1-2.37,2,8.26,8.26,0,0,1-3.48.71,10.38,10.38,0,0,1-4.1-.71,5.74,5.74,0,0,1-2.6-2.15,6.08,6.08,0,0,1-1-3.24l2.25-.2a5,5,0,0,0,.74,2.22,4.06,4.06,0,0,0,1.81,1.4,6.87,6.87,0,0,0,2.77.54,6.63,6.63,0,0,0,2.41-.41,3.35,3.35,0,0,0,1.56-1.11,2.58,2.58,0,0,0,.51-1.54,2.35,2.35,0,0,0-.49-1.48,3.65,3.65,0,0,0-1.62-1.06,31.92,31.92,0,0,0-3.21-.88,16.39,16.39,0,0,1-3.48-1.13,4.88,4.88,0,0,1-1.93-1.68,4.11,4.11,0,0,1-.63-2.25,4.59,4.59,0,0,1,.78-2.55,4.8,4.8,0,0,1,2.26-1.8,8.59,8.59,0,0,1,3.31-.62,9,9,0,0,1,3.54.65,5.1,5.1,0,0,1,2.36,1.9,5.47,5.47,0,0,1,.89,2.84l-2.29.17a3.7,3.7,0,0,0-1.25-2.58,4.86,4.86,0,0,0-3.14-.87,5,5,0,0,0-3.16.79,2.38,2.38,0,0,0-1,1.91,2.05,2.05,0,0,0,.7,1.6,9.5,9.5,0,0,0,3.6,1.29,23.86,23.86,0,0,1,4,1.15,5.47,5.47,0,0,1,2.33,1.84,4.49,4.49,0,0,1,.75,2.57A4.91,4.91,0,0,1,176.7,32.84Z"/><path class="cls-6" d="M122.29,75.73a2.93,2.93,0,0,0,.48-1.62,2.69,2.69,0,0,0-.93-2.1,4.35,4.35,0,0,0-2.93-.82H113.2v6h5.13a7.69,7.69,0,0,0,2.56-.34A2.72,2.72,0,0,0,122.29,75.73Z"/><path class="cls-7" d="M84.12,71.83a5.91,5.91,0,0,0-3.22-.9,6.1,6.1,0,0,0-4.36,1.74q-1.83,1.74-1.83,5.81a7.23,7.23,0,0,0,1.75,5.14,6.12,6.12,0,0,0,8.83,0A7.66,7.66,0,0,0,87,78.22a9.24,9.24,0,0,0-.74-3.85A5.72,5.72,0,0,0,84.12,71.83Z"/><path class="cls-8" d="M32.68,75.73a2.93,2.93,0,0,0,.48-1.62,2.69,2.69,0,0,0-.93-2.1,4.35,4.35,0,0,0-2.93-.82H23.58v6h5.13a7.69,7.69,0,0,0,2.56-.34A2.72,2.72,0,0,0,32.68,75.73Z"/><path class="cls-9" d="M177.62,54.6H20.72A10.83,10.83,0,0,0,9.92,65.4V90.6a10.83,10.83,0,0,0,10.8,10.8h156.9a10.83,10.83,0,0,0,10.8-10.8V65.4A10.83,10.83,0,0,0,177.62,54.6ZM34.09,87.23l-2.39-3.75Q30.66,81.85,30,81a5.43,5.43,0,0,0-1.21-1.21,3.6,3.6,0,0,0-1.09-.48,7.2,7.2,0,0,0-1.33-.09H23.58v8H21.2v-18h8a10.65,10.65,0,0,1,3.67.49,4,4,0,0,1,2,1.72,5.12,5.12,0,0,1,.75,2.72,4.54,4.54,0,0,1-1.24,3.24A6.29,6.29,0,0,1,30.54,79a6.2,6.2,0,0,1,1.44.9,12.42,12.42,0,0,1,2,2.4l3.14,4.91Zm18.78,0H39.41v-18h13v2.13H41.8v5.52h10V79h-10V85.1H52.87Zm16-2.38a5.43,5.43,0,0,1-2.37,2,8.26,8.26,0,0,1-3.48.71,10.38,10.38,0,0,1-4.1-.71,5.74,5.74,0,0,1-2.6-2.15,6.08,6.08,0,0,1-1-3.24l2.25-.2a5,5,0,0,0,.74,2.22,4.06,4.06,0,0,0,1.81,1.4,6.87,6.87,0,0,0,2.77.54A6.63,6.63,0,0,0,65.35,85a3.35,3.35,0,0,0,1.56-1.11,2.58,2.58,0,0,0,.51-1.54,2.35,2.35,0,0,0-.49-1.48,3.65,3.65,0,0,0-1.62-1.06,31.92,31.92,0,0,0-3.21-.88,16.39,16.39,0,0,1-3.48-1.13,4.88,4.88,0,0,1-1.93-1.68A4.11,4.11,0,0,1,56,73.85a4.59,4.59,0,0,1,.78-2.55,4.8,4.8,0,0,1,2.26-1.8,8.59,8.59,0,0,1,3.31-.62,9,9,0,0,1,3.54.65,5.1,5.1,0,0,1,2.36,1.9,5.47,5.47,0,0,1,.89,2.84l-2.29.17a3.7,3.7,0,0,0-1.25-2.58A4.86,4.86,0,0,0,62.49,71a5,5,0,0,0-3.16.79,2.38,2.38,0,0,0-1,1.91,2.05,2.05,0,0,0,.7,1.6,9.5,9.5,0,0,0,3.6,1.29,23.86,23.86,0,0,1,4,1.15A5.47,5.47,0,0,1,69,79.57a4.49,4.49,0,0,1,.75,2.57A4.91,4.91,0,0,1,68.89,84.84Zm19.5-1.7a7.56,7.56,0,0,1-3.14,3.28,9,9,0,0,1-4.38,1.11,8.53,8.53,0,0,1-4.55-1.23,7.91,7.91,0,0,1-3-3.36,10.18,10.18,0,0,1-1-4.5,9.8,9.8,0,0,1,2.41-7,8.2,8.2,0,0,1,6.23-2.54,8.64,8.64,0,0,1,4.5,1.19,7.8,7.8,0,0,1,3.06,3.33,10.81,10.81,0,0,1,1.05,4.84A10.63,10.63,0,0,1,88.39,83.14Zm18.41-3.53a12.34,12.34,0,0,1-.62,4.32,5.27,5.27,0,0,1-2.22,2.6,7.86,7.86,0,0,1-4.21,1,8.66,8.66,0,0,1-4.15-.87,5,5,0,0,1-2.3-2.53,12,12,0,0,1-.69-4.52V69.19H95V79.6a10.14,10.14,0,0,0,.44,3.46,3.31,3.31,0,0,0,1.5,1.72,5.2,5.2,0,0,0,2.6.6,5,5,0,0,0,3.75-1.19q1.12-1.19,1.12-4.59V69.19h2.39Zm16.91,7.62-2.39-3.75q-1-1.62-1.72-2.49a5.43,5.43,0,0,0-1.21-1.21,3.6,3.6,0,0,0-1.09-.48,7.2,7.2,0,0,0-1.33-.09H113.2v8h-2.39v-18h8a10.65,10.65,0,0,1,3.67.49,4,4,0,0,1,2,1.72,5.12,5.12,0,0,1,.75,2.72A4.54,4.54,0,0,1,124,77.34,6.29,6.29,0,0,1,120.15,79a6.2,6.2,0,0,1,1.44.9,12.42,12.42,0,0,1,2,2.4l3.14,4.91ZM141.53,86a7.44,7.44,0,0,1-4.77,1.54A8.57,8.57,0,0,1,132,86.35a7.41,7.41,0,0,1-2.78-3.44,12.27,12.27,0,0,1-1-4.84,10.63,10.63,0,0,1,1.08-4.92A7.38,7.38,0,0,1,132.43,70a9,9,0,0,1,4.37-1.09,7.4,7.4,0,0,1,4.55,1.38,7.16,7.16,0,0,1,2.57,3.88l-2.35.55a5.58,5.58,0,0,0-1.82-2.87,4.85,4.85,0,0,0-3-.9,5.83,5.83,0,0,0-3.48,1,5.26,5.26,0,0,0-2,2.68,10.77,10.77,0,0,0-.57,3.46,11,11,0,0,0,.67,4,5,5,0,0,0,2.09,2.57,5.85,5.85,0,0,0,3.06.85,5.13,5.13,0,0,0,3.4-1.16,5.92,5.92,0,0,0,1.88-3.43l2.39.6A8,8,0,0,1,141.53,86Zm19.15,1.24H147.22v-18h13v2.13H149.61v5.52h10V79h-10V85.1h11.07Zm16-2.38a5.43,5.43,0,0,1-2.37,2,8.26,8.26,0,0,1-3.48.71,10.38,10.38,0,0,1-4.1-.71,5.74,5.74,0,0,1-2.6-2.15,6.08,6.08,0,0,1-1-3.24l2.25-.2a5,5,0,0,0,.74,2.22,4.06,4.06,0,0,0,1.81,1.4,6.87,6.87,0,0,0,2.77.54,6.63,6.63,0,0,0,2.41-.41,3.35,3.35,0,0,0,1.56-1.11,2.58,2.58,0,0,0,.51-1.54,2.35,2.35,0,0,0-.49-1.48,3.65,3.65,0,0,0-1.62-1.06,31.92,31.92,0,0,0-3.21-.88,16.39,16.39,0,0,1-3.48-1.13,4.88,4.88,0,0,1-1.93-1.68,4.11,4.11,0,0,1-.63-2.25,4.59,4.59,0,0,1,.78-2.55,4.8,4.8,0,0,1,2.26-1.8,8.59,8.59,0,0,1,3.31-.62,9,9,0,0,1,3.54.65,5.1,5.1,0,0,1,2.36,1.9,5.47,5.47,0,0,1,.89,2.84l-2.29.17a3.7,3.7,0,0,0-1.25-2.58,4.86,4.86,0,0,0-3.14-.87,5,5,0,0,0-3.16.79,2.38,2.38,0,0,0-1,1.91,2.05,2.05,0,0,0,.7,1.6,9.5,9.5,0,0,0,3.6,1.29,23.86,23.86,0,0,1,4,1.15,5.47,5.47,0,0,1,2.33,1.84,4.49,4.49,0,0,1,.75,2.57A4.91,4.91,0,0,1,176.7,84.84Z"/></svg>