<svg id="Layer_1" data-name="Layer 1" xmlns="http://www.w3.org/2000/svg" xmlns:xlink="http://www.w3.org/1999/xlink" viewBox="0 0 50.94 101.88"><defs><style>.cls-1{fill:url(#New_Gradient_Swatch_3);}.cls-2{fill:url(#New_Gradient_Swatch_2);}</style><linearGradient id="New_Gradient_Swatch_3" x1="25.47" y1="0.71" x2="25.47" y2="50.23" gradientUnits="userSpaceOnUse"><stop offset="0" stop-color="#c8c6c7"/><stop offset="1" stop-color="#d94da8"/></linearGradient><linearGradient id="New_Gradient_Swatch_2" x1="25.47" y1="51.65" x2="25.47" y2="101.17" gradientUnits="userSpaceOnUse"><stop offset="0" stop-color="#b1c6c7"/><stop offset="1" stop-color="#2b80a9"/></linearGradient></defs><title>spotify_logo</title><path class="cls-1" d="M25.47.71A24.76,24.76,0,1,0,50.23,25.47,24.76,24.76,0,0,0,25.47.71ZM35.75,37.21a1.42,1.42,0,0,1-1.51,0,21.93,21.93,0,0,0-3.12-1.57,22.8,22.8,0,0,0-4-1.2A26.17,26.17,0,0,0,23.84,34a30.09,30.09,0,0,0-3.87,0c-1.14.06-2.27.18-3.4.35s-2.2.37-3.29.62a1.49,1.49,0,1,1-.7-2.89c.95-.23,1.91-.41,2.87-.57q1.74-.29,3.49-.42a34.43,34.43,0,0,1,3.7-.09c.86,0,1.72.09,2.58.18s1.64.22,2.44.39a25.36,25.36,0,0,1,6.14,2.08c.68.33,1.35.7,2,1.1a1.54,1.54,0,0,1,.71,1.41A1.39,1.39,0,0,1,35.75,37.21Zm3.72-7.71A1.81,1.81,0,0,1,38.07,31a1.79,1.79,0,0,1-1.45-.24A22.41,22.41,0,0,0,34.4,29.6a28.18,28.18,0,0,0-5.15-1.8,32.57,32.57,0,0,0-3.87-.71,33.24,33.24,0,0,0-4.91-.24,29.71,29.71,0,0,0-6.3.81c-.45.11-.9.24-1.35.37a1.86,1.86,0,0,1-1.24-3.5,9,9,0,0,1,1.21-.36q1.35-.36,2.73-.59t2.59-.33q.75-.07,1.5-.1c.5,0,1,0,1.53,0,1.08,0,2.18,0,3.28.13a37,37,0,0,1,4.13.59,33.51,33.51,0,0,1,5.85,1.72,27.5,27.5,0,0,1,4.15,2.06A1.85,1.85,0,0,1,39.47,29.5Zm1.07-5.77a2.11,2.11,0,0,1-1-.3,23.68,23.68,0,0,0-3.56-1.71,33.13,33.13,0,0,0-5-1.47q-1.34-.28-2.7-.47t-2.78-.3q-2.24-.17-4.49-.13-1.82,0-3.63.23a32.18,32.18,0,0,0-4.93.89c-.3.08-.6.19-.91.25a2.23,2.23,0,0,1-1-4.35,31.9,31.9,0,0,1,4.29-1,44.33,44.33,0,0,1,5.53-.51c1.38,0,2.75,0,4.13,0s2.58.18,3.86.35a43.39,43.39,0,0,1,6.41,1.31,32.06,32.06,0,0,1,5.4,2.06c.57.28,1.13.58,1.68.91a2.23,2.23,0,0,1-1.21,4.15Z"/><path class="cls-2" d="M25.47,51.65A24.76,24.76,0,1,0,50.23,76.41,24.76,24.76,0,0,0,25.47,51.65ZM35.75,88.15a1.42,1.42,0,0,1-1.51,0,21.93,21.93,0,0,0-3.12-1.57,22.8,22.8,0,0,0-4-1.2,26.17,26.17,0,0,0-3.32-.46,30.09,30.09,0,0,0-3.87,0c-1.14.06-2.27.18-3.4.35s-2.2.37-3.29.62a1.49,1.49,0,1,1-.7-2.89c.95-.23,1.91-.41,2.87-.57q1.74-.29,3.49-.42a34.43,34.43,0,0,1,3.7-.09c.86,0,1.72.09,2.58.18s1.64.22,2.44.39a25.36,25.36,0,0,1,6.14,2.08c.68.33,1.35.7,2,1.1A1.54,1.54,0,0,1,36.51,87,1.39,1.39,0,0,1,35.75,88.15Zm3.72-7.71A1.81,1.81,0,0,1,38.07,82a1.79,1.79,0,0,1-1.45-.24,22.41,22.41,0,0,0-2.22-1.19,28.18,28.18,0,0,0-5.15-1.8A32.57,32.57,0,0,0,25.39,78a33.24,33.24,0,0,0-4.91-.24,29.71,29.71,0,0,0-6.3.81c-.45.11-.9.24-1.35.37a1.86,1.86,0,0,1-1.24-3.5,9,9,0,0,1,1.21-.36q1.35-.36,2.73-.59t2.59-.33q.75-.07,1.5-.1c.5,0,1,0,1.53,0,1.08,0,2.18,0,3.28.13a37,37,0,0,1,4.13.59,33.51,33.51,0,0,1,5.85,1.72,27.5,27.5,0,0,1,4.15,2.06A1.85,1.85,0,0,1,39.47,80.44Zm1.07-5.77a2.11,2.11,0,0,1-1-.3,23.68,23.68,0,0,0-3.56-1.71,33.13,33.13,0,0,0-5-1.47q-1.34-.28-2.7-.47t-2.78-.3q-2.24-.17-4.49-.13-1.82,0-3.63.23a32.18,32.18,0,0,0-4.93.89c-.3.08-.6.19-.91.25a2.23,2.23,0,0,1-1-4.35,31.9,31.9,0,0,1,4.29-1,44.33,44.33,0,0,1,5.53-.51c1.38,0,2.75,0,4.13,0s2.58.18,3.86.35a43.39,43.39,0,0,1,6.41,1.31,32.06,32.06,0,0,1,5.4,2.06c.57.28,1.13.58,1.68.91a2.23,2.23,0,0,1-1.21,4.15Z"/></svg>