<svg id="Layer_1" data-name="Layer 1" xmlns="http://www.w3.org/2000/svg" xmlns:xlink="http://www.w3.org/1999/xlink" viewBox="0 0 50.94 101.88"><defs><style>.cls-1{fill:url(#New_Gradient_Swatch_3);}.cls-2{fill:url(#New_Gradient_Swatch_3-2);}.cls-3{fill:url(#New_Gradient_Swatch_2);}.cls-4{fill:url(#New_Gradient_Swatch_2-2);}</style><linearGradient id="New_Gradient_Swatch_3" x1="25.47" y1="1.5" x2="25.47" y2="49.24" gradientUnits="userSpaceOnUse"><stop offset="0" stop-color="#c8c6c7"/><stop offset="1" stop-color="#d94da8"/></linearGradient><linearGradient id="New_Gradient_Swatch_3-2" x1="25.46" y1="1.5" x2="25.46" y2="49.24" xlink:href="#New_Gradient_Swatch_3"/><linearGradient id="New_Gradient_Swatch_2" x1="25.47" y1="52.01" x2="25.47" y2="100.81" gradientUnits="userSpaceOnUse"><stop offset="0" stop-color="#b1c6c7"/><stop offset="1" stop-color="#2b80a9"/></linearGradient><linearGradient id="New_Gradient_Swatch_2-2" x1="25.46" y1="52.01" x2="25.46" y2="100.81" xlink:href="#New_Gradient_Swatch_2"/></defs><title>spreadshirt_logo</title><path class="cls-1" d="M25.47.71A24.76,24.76,0,1,0,50.23,25.47,24.76,24.76,0,0,0,25.47.71ZM26,43.43H25L6.53,25V24L18.19,12.36h1L25,18.19h1l5.83-5.83h1L44.41,24v1Z"/><polygon class="cls-2" points="25.47 24.5 18.64 17.67 12.33 23.99 19.16 30.81 25.47 37.12 31.78 30.81 38.59 24 32.28 17.69 25.47 24.5"/><path class="cls-3" d="M25.47,51.65A24.76,24.76,0,1,0,50.23,76.41,24.76,24.76,0,0,0,25.47,51.65ZM26,94.37H25L6.53,75.92V75L18.19,63.3h1L25,69.13h1l5.83-5.83h1L44.41,75v1Z"/><polygon class="cls-4" points="25.47 75.44 18.64 68.61 12.33 74.93 19.16 81.75 25.47 88.06 31.78 81.75 38.59 74.94 32.28 68.63 25.47 75.44"/></svg>