<svg id="Layer_1" data-name="Layer 1" xmlns="http://www.w3.org/2000/svg" xmlns:xlink="http://www.w3.org/1999/xlink" viewBox="0 0 50.94 101.88"><defs><style>.cls-1{fill:url(#New_Gradient_Swatch_3);}.cls-2{fill:url(#New_Gradient_Swatch_2);}</style><linearGradient id="New_Gradient_Swatch_3" x1="25.47" y1="0.71" x2="25.47" y2="50.23" gradientUnits="userSpaceOnUse"><stop offset="0" stop-color="#c8c6c7"/><stop offset="1" stop-color="#d94da8"/></linearGradient><linearGradient id="New_Gradient_Swatch_2" x1="25.47" y1="51.65" x2="25.47" y2="101.17" gradientUnits="userSpaceOnUse"><stop offset="0" stop-color="#b1c6c7"/><stop offset="1" stop-color="#2b80a9"/></linearGradient></defs><title>tumblr_logo</title><path class="cls-1" d="M25.47.71A24.76,24.76,0,1,0,50.23,25.47,24.76,24.76,0,0,0,25.47.71ZM33.72,23h-6.8V33.72c0,2.91,6.8,1,6.8,1v3.88s-2,1.14-7.19,1.14c-4.86,0-6.41-3.1-6.41-6V23H17.22V19.16h1.94c3.88,0,3.88-6.8,3.88-6.8h3.88v6.8h6.8Z"/><path class="cls-2" d="M25.47,51.65A24.76,24.76,0,1,0,50.23,76.41,24.76,24.76,0,0,0,25.47,51.65ZM33.72,74h-6.8V84.66c0,2.91,6.8,1,6.8,1v3.88s-2,1.14-7.19,1.14c-4.86,0-6.41-3.1-6.41-6V74H17.22V70.1h1.94C23,70.1,23,63.3,23,63.3h3.88v6.8h6.8Z"/></svg>