<svg id="Layer_1" data-name="Layer 1" xmlns="http://www.w3.org/2000/svg" xmlns:xlink="http://www.w3.org/1999/xlink" viewBox="0 0 50.94 101.88"><defs><style>.cls-1{fill:url(#New_Gradient_Swatch_3);}.cls-2{fill:url(#New_Gradient_Swatch_2);}</style><linearGradient id="New_Gradient_Swatch_3" x1="25.47" y1="0.76" x2="25.47" y2="50.18" gradientUnits="userSpaceOnUse"><stop offset="0" stop-color="#c8c6c7"/><stop offset="1" stop-color="#d94da8"/></linearGradient><linearGradient id="New_Gradient_Swatch_2" x1="25.47" y1="51.65" x2="25.47" y2="101.17" gradientUnits="userSpaceOnUse"><stop offset="0" stop-color="#b1c6c7"/><stop offset="1" stop-color="#2b80a9"/></linearGradient></defs><title>twitter_logo</title><path class="cls-1" d="M25.47.76A24.71,24.71,0,1,0,50.18,25.47,24.71,24.71,0,0,0,25.47.76ZM40.72,16.81a12,12,0,0,1-2.54,2.59.54.54,0,0,0-.24.5,17.74,17.74,0,0,1-4.27,12,16.17,16.17,0,0,1-10.23,5.72,17.51,17.51,0,0,1-10.95-1.7c-.46-.24-.9-.5-1.36-.75a13.41,13.41,0,0,0,6.27-1,12.07,12.07,0,0,0,2.66-1.57c-.4-.06-.79-.1-1.16-.19a6.08,6.08,0,0,1-4.39-3.78c-.1-.23-.14-.37.22-.31a5.34,5.34,0,0,0,2.06-.06c.07,0,.15,0,.18-.11a6.2,6.2,0,0,1-4.74-5.81c0-.2,0-.26.24-.16a6,6,0,0,0,2,.62.74.74,0,0,0,.41,0,6.22,6.22,0,0,1-1.78-1.94A6.12,6.12,0,0,1,13,15c.13-.28.21-.32.43-.05a17.33,17.33,0,0,0,10.66,6c.47.08.95.1,1.42.16.25,0,.3-.07.26-.3a6,6,0,0,1,1.76-5.48A6.15,6.15,0,0,1,36,15.21a.61.61,0,0,0,.66.17,12.74,12.74,0,0,0,3.24-1.27l.26-.13a6.3,6.3,0,0,1-2.61,3.36,12.5,12.5,0,0,0,3.3-.88C40.9,16.65,40.79,16.72,40.72,16.81Z"/><path class="cls-2" d="M25.47,51.65A24.76,24.76,0,1,0,50.23,76.41,24.76,24.76,0,0,0,25.47,51.65ZM40.76,67.73a12,12,0,0,1-2.54,2.6.54.54,0,0,0-.24.5,17.78,17.78,0,0,1-4.28,12A16.21,16.21,0,0,1,23.44,88.6a17.55,17.55,0,0,1-11-1.71c-.46-.24-.91-.5-1.36-.76a13.44,13.44,0,0,0,6.29-1,12.1,12.1,0,0,0,2.67-1.57c-.41-.07-.79-.1-1.16-.19a6.1,6.1,0,0,1-4.4-3.78c-.1-.23-.14-.37.22-.31a5.35,5.35,0,0,0,2.06-.06c.07,0,.15,0,.18-.11a6.22,6.22,0,0,1-4.75-5.82c0-.2,0-.26.24-.16a6.06,6.06,0,0,0,2,.62.74.74,0,0,0,.41,0,6.24,6.24,0,0,1-1.78-1.95,6.14,6.14,0,0,1-.19-5.9c.13-.28.21-.32.44-.05a17.37,17.37,0,0,0,10.69,6c.47.08.95.1,1.42.16.25,0,.3-.07.26-.3a6,6,0,0,1,1.76-5.49A6.16,6.16,0,0,1,36,66.13a.61.61,0,0,0,.66.17A12.77,12.77,0,0,0,39.94,65l.26-.13a6.31,6.31,0,0,1-2.62,3.37,12.52,12.52,0,0,0,3.31-.88C40.93,67.57,40.82,67.64,40.76,67.73Z"/></svg>