<svg id="Layer_1" data-name="Layer 1" xmlns="http://www.w3.org/2000/svg" xmlns:xlink="http://www.w3.org/1999/xlink" viewBox="0 0 50.94 101.88"><defs><style>.cls-1{fill:url(#New_Gradient_Swatch_3);}.cls-2{fill:url(#New_Gradient_Swatch_3-2);}.cls-3{fill:url(#New_Gradient_Swatch_3-3);}.cls-4{fill:url(#New_Gradient_Swatch_3-4);}.cls-5{fill:url(#New_Gradient_Swatch_3-8);}.cls-6{fill:url(#New_Gradient_Swatch_3-9);}.cls-7{fill:url(#New_Gradient_Swatch_3-10);}.cls-8{fill:url(#New_Gradient_Swatch_2);}.cls-9{fill:url(#New_Gradient_Swatch_2-2);}.cls-10{fill:url(#New_Gradient_Swatch_2-3);}.cls-11{fill:url(#New_Gradient_Swatch_2-4);}.cls-12{fill:url(#New_Gradient_Swatch_2-8);}.cls-13{fill:url(#New_Gradient_Swatch_2-9);}.cls-14{fill:url(#New_Gradient_Swatch_2-10);}</style><linearGradient id="New_Gradient_Swatch_3" x1="26.62" y1="1.02" x2="26.62" y2="49.96" gradientUnits="userSpaceOnUse"><stop offset="0" stop-color="#c8c6c7"/><stop offset="1" stop-color="#d94da8"/></linearGradient><linearGradient id="New_Gradient_Swatch_3-2" x1="13.85" y1="1.02" x2="13.85" y2="49.96" xlink:href="#New_Gradient_Swatch_3"/><linearGradient id="New_Gradient_Swatch_3-3" x1="19.83" y1="1.02" x2="19.83" y2="49.96" xlink:href="#New_Gradient_Swatch_3"/><linearGradient id="New_Gradient_Swatch_3-4" x1="25.81" y1="1.02" x2="25.81" y2="49.96" xlink:href="#New_Gradient_Swatch_3"/><linearGradient id="New_Gradient_Swatch_3-8" x1="38.26" y1="1.02" x2="38.26" y2="49.96" xlink:href="#New_Gradient_Swatch_3"/><linearGradient id="New_Gradient_Swatch_3-9" x1="25.47" y1="1.02" x2="25.47" y2="49.96" xlink:href="#New_Gradient_Swatch_3"/><linearGradient id="New_Gradient_Swatch_3-10" x1="32.28" y1="1.02" x2="32.28" y2="49.96" xlink:href="#New_Gradient_Swatch_3"/><linearGradient id="New_Gradient_Swatch_2" x1="26.62" y1="51.96" x2="26.62" y2="100.9" gradientUnits="userSpaceOnUse"><stop offset="0" stop-color="#b1c6c7"/><stop offset="1" stop-color="#2b80a9"/></linearGradient><linearGradient id="New_Gradient_Swatch_2-2" x1="13.85" y1="51.96" x2="13.85" y2="100.9" xlink:href="#New_Gradient_Swatch_2"/><linearGradient id="New_Gradient_Swatch_2-3" x1="19.83" y1="51.96" x2="19.83" y2="100.9" xlink:href="#New_Gradient_Swatch_2"/><linearGradient id="New_Gradient_Swatch_2-4" x1="25.81" y1="51.96" x2="25.81" y2="100.9" xlink:href="#New_Gradient_Swatch_2"/><linearGradient id="New_Gradient_Swatch_2-8" x1="38.26" y1="51.96" x2="38.26" y2="100.9" xlink:href="#New_Gradient_Swatch_2"/><linearGradient id="New_Gradient_Swatch_2-9" x1="25.47" y1="51.96" x2="25.47" y2="100.9" xlink:href="#New_Gradient_Swatch_2"/><linearGradient id="New_Gradient_Swatch_2-10" x1="32.28" y1="51.96" x2="32.28" y2="100.9" xlink:href="#New_Gradient_Swatch_2"/></defs><title>video_button</title><path class="cls-1" d="M30.29,26.8c1.49-1,1.49-1.49,0-2.49-2.49-1.49-3.49-2-5.48-3s-3,0-3,1v6c0,1.49,1,2.49,3,1.49S27.8,28.3,30.29,26.8Z"/><rect class="cls-2" x="11.86" y="16.5" width="3.98" height="2.49"/><rect class="cls-3" x="17.84" y="16.5" width="3.98" height="2.49"/><rect class="cls-4" x="23.81" y="16.5" width="3.98" height="2.49"/><rect class="cls-2" x="11.86" y="32.18" width="3.98" height="2.49"/><rect class="cls-4" x="23.81" y="32.18" width="3.98" height="2.49"/><rect class="cls-3" x="17.84" y="32.18" width="3.98" height="2.49"/><rect class="cls-5" x="36.26" y="16.5" width="3.98" height="2.49"/><path class="cls-6" d="M25.47.71A24.76,24.76,0,1,0,50.23,25.47,24.76,24.76,0,0,0,25.47.71ZM41.74,34.92A1.57,1.57,0,0,1,40,36.67H11.86A1.69,1.69,0,0,1,10,34.8V16.5a2,2,0,0,1,1.87-2H39.75a1.82,1.82,0,0,1,2,2Z"/><rect class="cls-7" x="30.29" y="32.18" width="3.98" height="2.49"/><rect class="cls-5" x="36.26" y="32.18" width="3.98" height="2.49"/><rect class="cls-7" x="30.29" y="16.5" width="3.98" height="2.49"/><path class="cls-8" d="M30.29,77.74c1.49-1,1.49-1.49,0-2.49-2.49-1.49-3.49-2-5.48-3s-3,0-3,1v6c0,1.49,1,2.49,3,1.49S27.8,79.24,30.29,77.74Z"/><rect class="cls-9" x="11.86" y="67.44" width="3.98" height="2.49"/><rect class="cls-10" x="17.84" y="67.44" width="3.98" height="2.49"/><rect class="cls-11" x="23.81" y="67.44" width="3.98" height="2.49"/><rect class="cls-9" x="11.86" y="83.12" width="3.98" height="2.49"/><rect class="cls-11" x="23.81" y="83.12" width="3.98" height="2.49"/><rect class="cls-10" x="17.84" y="83.12" width="3.98" height="2.49"/><rect class="cls-12" x="36.26" y="67.44" width="3.98" height="2.49"/><path class="cls-13" d="M25.47,51.65A24.76,24.76,0,1,0,50.23,76.41,24.76,24.76,0,0,0,25.47,51.65ZM41.74,85.86A1.57,1.57,0,0,1,40,87.61H11.86A1.69,1.69,0,0,1,10,85.74V67.44a2,2,0,0,1,1.87-2H39.75a1.82,1.82,0,0,1,2,2Z"/><rect class="cls-14" x="30.29" y="83.12" width="3.98" height="2.49"/><rect class="cls-12" x="36.26" y="83.12" width="3.98" height="2.49"/><rect class="cls-14" x="30.29" y="67.44" width="3.98" height="2.49"/></svg>